<svg xmlns="http://www.w3.org/2000/svg" viewBox="0 0 680 360" width="680" height="360" font-family="Segoe UI, Arial, sans-serif">
<rect width="100%" height="100%" fill="#ffffff"/>
<text x="340.0" y="22.0" font-size="15" text-anchor="middle" font-weight="700" fill="#1a2332">Hai dạng tín hiệu trục khuỷu (đo máy hiện sóng khi đề)</text>
<text x="20.0" y="62.0" font-size="14" text-anchor="start" font-weight="700" fill="#1a2332">(A)</text>
<rect x="70.0" y="45.0" width="580.0" height="120.0" rx="0" fill="#fbfcfd" stroke="#8a96a3" stroke-width="1"/>
<line x1="111.4" y1="45.0" x2="111.4" y2="165.0" stroke="#dfe5ec" stroke-width="1" stroke-linecap="round"/>
<line x1="152.9" y1="45.0" x2="152.9" y2="165.0" stroke="#dfe5ec" stroke-width="1" stroke-linecap="round"/>
<line x1="194.3" y1="45.0" x2="194.3" y2="165.0" stroke="#dfe5ec" stroke-width="1" stroke-linecap="round"/>
<line x1="235.7" y1="45.0" x2="235.7" y2="165.0" stroke="#dfe5ec" stroke-width="1" stroke-linecap="round"/>
<line x1="277.1" y1="45.0" x2="277.1" y2="165.0" stroke="#dfe5ec" stroke-width="1" stroke-linecap="round"/>
<line x1="318.6" y1="45.0" x2="318.6" y2="165.0" stroke="#dfe5ec" stroke-width="1" stroke-linecap="round"/>
<line x1="360.0" y1="45.0" x2="360.0" y2="165.0" stroke="#dfe5ec" stroke-width="1" stroke-linecap="round"/>
<line x1="401.4" y1="45.0" x2="401.4" y2="165.0" stroke="#dfe5ec" stroke-width="1" stroke-linecap="round"/>
<line x1="442.9" y1="45.0" x2="442.9" y2="165.0" stroke="#dfe5ec" stroke-width="1" stroke-linecap="round"/>
<line x1="484.3" y1="45.0" x2="484.3" y2="165.0" stroke="#dfe5ec" stroke-width="1" stroke-linecap="round"/>
<line x1="525.7" y1="45.0" x2="525.7" y2="165.0" stroke="#dfe5ec" stroke-width="1" stroke-linecap="round"/>
<line x1="567.1" y1="45.0" x2="567.1" y2="165.0" stroke="#dfe5ec" stroke-width="1" stroke-linecap="round"/>
<line x1="608.6" y1="45.0" x2="608.6" y2="165.0" stroke="#dfe5ec" stroke-width="1" stroke-linecap="round"/>
<line x1="70.0" y1="75.0" x2="650.0" y2="75.0" stroke="#dfe5ec" stroke-width="1" stroke-linecap="round"/>
<line x1="70.0" y1="105.0" x2="650.0" y2="105.0" stroke="#dfe5ec" stroke-width="1" stroke-linecap="round"/>
<line x1="70.0" y1="135.0" x2="650.0" y2="135.0" stroke="#dfe5ec" stroke-width="1" stroke-linecap="round"/>
<polyline points="70.0,105.0 70.4,100.3 70.8,95.7 71.2,91.2 71.7,86.9 72.1,83.0 72.5,79.3 72.9,76.1 73.3,73.3 73.7,71.1 74.1,69.3 74.6,68.2 75.0,67.6 75.4,67.6 75.8,68.2 76.2,69.3 76.6,71.1 77.0,73.3 77.5,76.1 77.9,79.3 78.3,83.0 78.7,86.9 79.1,91.2 79.5,95.7 79.9,100.3 80.4,105.0 80.8,109.7 81.2,114.3 81.6,118.8 82.0,123.1 82.4,127.0 82.8,130.7 83.3,133.9 83.7,136.7 84.1,138.9 84.5,140.7 84.9,141.8 85.3,142.4 85.7,142.4 86.2,141.8 86.6,140.7 87.0,138.9 87.4,136.7 87.8,133.9 88.2,130.7 88.6,127.0 89.1,123.1 89.5,118.8 89.9,114.3 90.3,109.7 90.7,105.0 91.1,100.3 91.5,95.7 92.0,91.2 92.4,86.9 92.8,83.0 93.2,79.3 93.6,76.1 94.0,73.3 94.4,71.1 94.9,69.3 95.3,68.2 95.7,67.6 96.1,67.6 96.5,68.2 96.9,69.3 97.3,71.1 97.8,73.3 98.2,76.1 98.6,79.3 99.0,83.0 99.4,86.9 99.8,91.2 100.2,95.7 100.7,100.3 101.1,105.0 101.5,109.7 101.9,114.3 102.3,118.8 102.7,123.1 103.1,127.0 103.6,130.7 104.0,133.9 104.4,136.7 104.8,138.9 105.2,140.7 105.6,141.8 106.0,142.4 106.5,142.4 106.9,141.8 107.3,140.7 107.7,138.9 108.1,136.7 108.5,133.9 108.9,130.7 109.4,127.0 109.8,123.1 110.2,118.8 110.6,114.3 111.0,109.7 111.4,105.0 111.8,100.3 112.3,95.7 112.7,91.2 113.1,86.9 113.5,83.0 113.9,79.3 114.3,76.1 114.7,73.3 115.2,71.1 115.6,69.3 116.0,68.2 116.4,67.6 116.8,67.6 117.2,68.2 117.6,69.3 118.1,71.1 118.5,73.3 118.9,76.1 119.3,79.3 119.7,83.0 120.1,86.9 120.5,91.2 121.0,95.7 121.4,100.3 121.8,105.0 122.2,109.7 122.6,114.3 123.0,118.8 123.4,123.1 123.9,127.0 124.3,130.7 124.7,133.9 125.1,136.7 125.5,138.9 125.9,140.7 126.3,141.8 126.8,142.4 127.2,142.4 127.6,141.8 128.0,140.7 128.4,138.9 128.8,136.7 129.2,133.9 129.7,130.7 130.1,127.0 130.5,123.1 130.9,118.8 131.3,114.3 131.7,109.7 132.1,105.0 132.6,100.3 133.0,95.7 133.4,91.2 133.8,86.9 134.2,83.0 134.6,79.3 135.0,76.1 135.5,73.3 135.9,71.1 136.3,69.3 136.7,68.2 137.1,67.6 137.5,67.6 137.9,68.2 138.4,69.3 138.8,71.1 139.2,73.3 139.6,76.1 140.0,79.3 140.4,83.0 140.8,86.9 141.3,91.2 141.7,95.7 142.1,100.3 142.5,105.0 142.9,109.7 143.3,114.3 143.7,118.8 144.2,123.1 144.6,127.0 145.0,130.7 145.4,133.9 145.8,136.7 146.2,138.9 146.6,140.7 147.1,141.8 147.5,142.4 147.9,142.4 148.3,141.8 148.7,140.7 149.1,138.9 149.5,136.7 150.0,133.9 150.4,130.7 150.8,127.0 151.2,123.1 151.6,118.8 152.0,114.3 152.4,109.7 152.9,105.0 153.3,100.3 153.7,95.7 154.1,91.2 154.5,86.9 154.9,83.0 155.3,79.3 155.8,76.1 156.2,73.3 156.6,71.1 157.0,69.3 157.4,68.2 157.8,67.6 158.2,67.6 158.7,68.2 159.1,69.3 159.5,71.1 159.9,73.3 160.3,76.1 160.7,79.3 161.1,83.0 161.6,86.9 162.0,91.2 162.4,95.7 162.8,100.3 163.2,105.0 163.6,109.7 164.0,114.3 164.5,118.8 164.9,123.1 165.3,127.0 165.7,130.7 166.1,133.9 166.5,136.7 166.9,138.9 167.4,140.7 167.8,141.8 168.2,142.4 168.6,142.4 169.0,141.8 169.4,140.7 169.8,138.9 170.3,136.7 170.7,133.9 171.1,130.7 171.5,127.0 171.9,123.1 172.3,118.8 172.7,114.3 173.2,109.7 173.6,105.0 174.0,100.3 174.4,95.7 174.8,91.2 175.2,86.9 175.6,83.0 176.1,79.3 176.5,76.1 176.9,73.3 177.3,71.1 177.7,69.3 178.1,68.2 178.5,67.6 179.0,67.6 179.4,68.2 179.8,69.3 180.2,71.1 180.6,73.3 181.0,76.1 181.4,79.3 181.9,83.0 182.3,86.9 182.7,91.2 183.1,95.7 183.5,100.3 183.9,105.0 184.3,109.7 184.8,114.3 185.2,118.8 185.6,123.1 186.0,127.0 186.4,130.7 186.8,133.9 187.2,136.7 187.7,138.9 188.1,140.7 188.5,141.8 188.9,142.4 189.3,142.4 189.7,141.8 190.1,140.7 190.6,138.9 191.0,136.7 191.4,133.9 191.8,130.7 192.2,127.0 192.6,123.1 193.0,118.8 193.5,114.3 193.9,109.7 194.3,105.0 194.7,100.3 195.1,95.7 195.5,91.2 195.9,86.9 196.4,83.0 196.8,79.3 197.2,76.1 197.6,73.3 198.0,71.1 198.4,69.3 198.8,68.2 199.3,67.6 199.7,67.6 200.1,68.2 200.5,69.3 200.9,71.1 201.3,73.3 201.7,76.1 202.2,79.3 202.6,83.0 203.0,86.9 203.4,91.2 203.8,95.7 204.2,100.3 204.6,105.0 205.1,109.7 205.5,114.3 205.9,118.8 206.3,123.1 206.7,127.0 207.1,130.7 207.5,133.9 208.0,136.7 208.4,138.9 208.8,140.7 209.2,141.8 209.6,142.4 210.0,142.4 210.4,141.8 210.9,140.7 211.3,138.9 211.7,136.7 212.1,133.9 212.5,130.7 212.9,127.0 213.3,123.1 213.8,118.8 214.2,114.3 214.6,109.7 215.0,105.0 215.4,100.3 215.8,95.7 216.2,91.2 216.7,86.9 217.1,83.0 217.5,79.3 217.9,76.1 218.3,73.3 218.7,71.1 219.1,69.3 219.6,68.2 220.0,67.6 220.4,67.6 220.8,68.2 221.2,69.3 221.6,71.1 222.0,73.3 222.5,76.1 222.9,79.3 223.3,83.0 223.7,86.9 224.1,91.2 224.5,95.7 224.9,100.3 225.4,105.0 225.8,109.7 226.2,114.3 226.6,118.8 227.0,123.1 227.4,127.0 227.8,130.7 228.3,133.9 228.7,136.7 229.1,138.9 229.5,140.7 229.9,141.8 230.3,142.4 230.7,142.4 231.2,141.8 231.6,140.7 232.0,138.9 232.4,136.7 232.8,133.9 233.2,130.7 233.6,127.0 234.1,123.1 234.5,118.8 234.9,114.3 235.3,109.7 235.7,105.0 236.1,100.3 236.5,95.7 237.0,91.2 237.4,86.9 237.8,83.0 238.2,79.3 238.6,76.1 239.0,73.3 239.4,71.1 239.9,69.3 240.3,68.2 240.7,67.6 241.1,67.6 241.5,68.2 241.9,69.3 242.3,71.1 242.8,73.3 243.2,76.1 243.6,79.3 244.0,83.0 244.4,86.9 244.8,91.2 245.2,95.7 245.7,100.3 246.1,105.0 246.5,109.7 246.9,114.3 247.3,118.8 247.7,123.1 248.1,127.0 248.6,130.7 249.0,133.9 249.4,136.7 249.8,138.9 250.2,140.7 250.6,141.8 251.0,142.4 251.5,142.4 251.9,141.8 252.3,140.7 252.7,138.9 253.1,136.7 253.5,133.9 253.9,130.7 254.4,127.0 254.8,123.1 255.2,118.8 255.6,114.3 256.0,109.7 256.4,105.0 256.8,100.3 257.3,95.7 257.7,91.2 258.1,86.9 258.5,83.0 258.9,79.3 259.3,76.1 259.7,73.3 260.2,71.1 260.6,69.3 261.0,68.2 261.4,67.6 261.8,67.6 262.2,68.2 262.6,69.3 263.1,71.1 263.5,73.3 263.9,76.1 264.3,79.3 264.7,83.0 265.1,86.9 265.5,91.2 266.0,95.7 266.4,100.3 266.8,105.0 267.2,109.7 267.6,114.3 268.0,118.8 268.4,123.1 268.9,127.0 269.3,130.7 269.7,133.9 270.1,136.7 270.5,138.9 270.9,140.7 271.3,141.8 271.8,142.4 272.2,142.4 272.6,141.8 273.0,140.7 273.4,138.9 273.8,136.7 274.2,133.9 274.7,130.7 275.1,127.0 275.5,123.1 275.9,118.8 276.3,114.3 276.7,109.7 277.1,105.0 277.6,100.3 278.0,95.7 278.4,91.2 278.8,86.9 279.2,83.0 279.6,79.3 280.0,76.1 280.5,73.3 280.9,71.1 281.3,69.3 281.7,68.2 282.1,67.6 282.5,67.6 282.9,68.2 283.4,69.3 283.8,71.1 284.2,73.3 284.6,76.1 285.0,79.3 285.4,83.0 285.8,86.9 286.3,91.2 286.7,95.7 287.1,100.3 287.5,105.0 287.9,109.7 288.3,114.3 288.7,118.8 289.2,123.1 289.6,127.0 290.0,130.7 290.4,133.9 290.8,136.7 291.2,138.9 291.6,140.7 292.1,141.8 292.5,142.4 292.9,142.4 293.3,141.8 293.7,140.7 294.1,138.9 294.5,136.7 295.0,133.9 295.4,130.7 295.8,127.0 296.2,123.1 296.6,118.8 297.0,114.3 297.4,109.7 297.9,105.0 298.3,100.3 298.7,95.7 299.1,91.2 299.5,86.9 299.9,83.0 300.3,79.3 300.8,76.1 301.2,73.3 301.6,71.1 302.0,69.3 302.4,68.2 302.8,67.6 303.2,67.6 303.7,68.2 304.1,69.3 304.5,71.1 304.9,73.3 305.3,76.1 305.7,79.3 306.1,83.0 306.6,86.9 307.0,91.2 307.4,95.7 307.8,100.3 308.2,105.0 308.6,111.1 309.0,117.1 309.5,122.9 309.9,128.5 310.3,133.7 310.7,138.4 311.1,142.6 311.5,146.2 311.9,149.1 312.4,151.4 312.8,152.9 313.2,153.7 313.6,153.7 314.0,152.9 314.4,151.4 314.8,149.1 315.3,146.2 315.7,142.6 316.1,138.4 316.5,133.7 316.9,128.5 317.3,122.9 317.7,117.1 318.2,111.1 318.6,105.0 319.0,105.0 319.4,105.0 319.8,105.0 320.2,105.0 320.6,105.0 321.1,105.0 321.5,105.0 321.9,105.0 322.3,105.0 322.7,105.0 323.1,105.0 323.5,105.0 324.0,105.0 324.4,105.0 324.8,105.0 325.2,105.0 325.6,105.0 326.0,105.0 326.4,105.0 326.9,105.0 327.3,105.0 327.7,105.0 328.1,105.0 328.5,105.0 328.9,105.0 329.3,105.0 329.8,105.0 330.2,105.0 330.6,105.0 331.0,105.0 331.4,105.0 331.8,105.0 332.2,105.0 332.7,105.0 333.1,105.0 333.5,105.0 333.9,105.0 334.3,105.0 334.7,105.0 335.1,105.0 335.6,105.0 336.0,105.0 336.4,105.0 336.8,105.0 337.2,105.0 337.6,105.0 338.0,105.0 338.5,105.0 338.9,105.0 339.3,105.0 339.7,105.0 340.1,105.0 340.5,105.0 340.9,105.0 341.4,105.0 341.8,105.0 342.2,105.0 342.6,105.0 343.0,105.0 343.4,105.0 343.8,105.0 344.3,105.0 344.7,105.0 345.1,105.0 345.5,105.0 345.9,105.0 346.3,105.0 346.7,105.0 347.2,105.0 347.6,105.0 348.0,105.0 348.4,105.0 348.8,105.0 349.2,105.0 349.6,105.0 350.1,105.0 350.5,105.0 350.9,105.0 351.3,105.0 351.7,105.0 352.1,105.0 352.5,105.0 353.0,105.0 353.4,105.0 353.8,105.0 354.2,105.0 354.6,105.0 355.0,105.0 355.4,105.0 355.9,105.0 356.3,105.0 356.7,105.0 357.1,105.0 357.5,105.0 357.9,105.0 358.3,105.0 358.8,105.0 359.2,105.0 359.6,105.0 360.0,105.0 360.4,98.0 360.8,91.0 361.2,84.3 361.7,77.9 362.1,71.9 362.5,66.5 362.9,61.7 363.3,57.5 363.7,54.1 364.1,51.5 364.6,49.7 365.0,48.9 365.4,48.9 365.8,49.7 366.2,51.5 366.6,54.1 367.0,57.5 367.5,61.7 367.9,66.5 368.3,71.9 368.7,77.9 369.1,84.3 369.5,91.0 369.9,98.0 370.4,105.0 370.8,109.7 371.2,114.3 371.6,118.8 372.0,123.1 372.4,127.0 372.8,130.7 373.3,133.9 373.7,136.7 374.1,138.9 374.5,140.7 374.9,141.8 375.3,142.4 375.7,142.4 376.2,141.8 376.6,140.7 377.0,138.9 377.4,136.7 377.8,133.9 378.2,130.7 378.6,127.0 379.1,123.1 379.5,118.8 379.9,114.3 380.3,109.7 380.7,105.0 381.1,100.3 381.5,95.7 382.0,91.2 382.4,86.9 382.8,83.0 383.2,79.3 383.6,76.1 384.0,73.3 384.4,71.1 384.9,69.3 385.3,68.2 385.7,67.6 386.1,67.6 386.5,68.2 386.9,69.3 387.3,71.1 387.8,73.3 388.2,76.1 388.6,79.3 389.0,83.0 389.4,86.9 389.8,91.2 390.2,95.7 390.7,100.3 391.1,105.0 391.5,109.7 391.9,114.3 392.3,118.8 392.7,123.1 393.1,127.0 393.6,130.7 394.0,133.9 394.4,136.7 394.8,138.9 395.2,140.7 395.6,141.8 396.0,142.4 396.5,142.4 396.9,141.8 397.3,140.7 397.7,138.9 398.1,136.7 398.5,133.9 398.9,130.7 399.4,127.0 399.8,123.1 400.2,118.8 400.6,114.3 401.0,109.7 401.4,105.0 401.8,100.3 402.3,95.7 402.7,91.2 403.1,86.9 403.5,83.0 403.9,79.3 404.3,76.1 404.7,73.3 405.2,71.1 405.6,69.3 406.0,68.2 406.4,67.6 406.8,67.6 407.2,68.2 407.6,69.3 408.1,71.1 408.5,73.3 408.9,76.1 409.3,79.3 409.7,83.0 410.1,86.9 410.5,91.2 411.0,95.7 411.4,100.3 411.8,105.0 412.2,109.7 412.6,114.3 413.0,118.8 413.4,123.1 413.9,127.0 414.3,130.7 414.7,133.9 415.1,136.7 415.5,138.9 415.9,140.7 416.3,141.8 416.8,142.4 417.2,142.4 417.6,141.8 418.0,140.7 418.4,138.9 418.8,136.7 419.2,133.9 419.7,130.7 420.1,127.0 420.5,123.1 420.9,118.8 421.3,114.3 421.7,109.7 422.1,105.0 422.6,100.3 423.0,95.7 423.4,91.2 423.8,86.9 424.2,83.0 424.6,79.3 425.0,76.1 425.5,73.3 425.9,71.1 426.3,69.3 426.7,68.2 427.1,67.6 427.5,67.6 427.9,68.2 428.4,69.3 428.8,71.1 429.2,73.3 429.6,76.1 430.0,79.3 430.4,83.0 430.8,86.9 431.3,91.2 431.7,95.7 432.1,100.3 432.5,105.0 432.9,109.7 433.3,114.3 433.7,118.8 434.2,123.1 434.6,127.0 435.0,130.7 435.4,133.9 435.8,136.7 436.2,138.9 436.6,140.7 437.1,141.8 437.5,142.4 437.9,142.4 438.3,141.8 438.7,140.7 439.1,138.9 439.5,136.7 440.0,133.9 440.4,130.7 440.8,127.0 441.2,123.1 441.6,118.8 442.0,114.3 442.4,109.7 442.9,105.0 443.3,100.3 443.7,95.7 444.1,91.2 444.5,86.9 444.9,83.0 445.3,79.3 445.8,76.1 446.2,73.3 446.6,71.1 447.0,69.3 447.4,68.2 447.8,67.6 448.2,67.6 448.7,68.2 449.1,69.3 449.5,71.1 449.9,73.3 450.3,76.1 450.7,79.3 451.1,83.0 451.6,86.9 452.0,91.2 452.4,95.7 452.8,100.3 453.2,105.0 453.6,109.7 454.0,114.3 454.5,118.8 454.9,123.1 455.3,127.0 455.7,130.7 456.1,133.9 456.5,136.7 456.9,138.9 457.4,140.7 457.8,141.8 458.2,142.4 458.6,142.4 459.0,141.8 459.4,140.7 459.8,138.9 460.3,136.7 460.7,133.9 461.1,130.7 461.5,127.0 461.9,123.1 462.3,118.8 462.7,114.3 463.2,109.7 463.6,105.0 464.0,100.3 464.4,95.7 464.8,91.2 465.2,86.9 465.6,83.0 466.1,79.3 466.5,76.1 466.9,73.3 467.3,71.1 467.7,69.3 468.1,68.2 468.5,67.6 469.0,67.6 469.4,68.2 469.8,69.3 470.2,71.1 470.6,73.3 471.0,76.1 471.4,79.3 471.9,83.0 472.3,86.9 472.7,91.2 473.1,95.7 473.5,100.3 473.9,105.0 474.3,109.7 474.8,114.3 475.2,118.8 475.6,123.1 476.0,127.0 476.4,130.7 476.8,133.9 477.2,136.7 477.7,138.9 478.1,140.7 478.5,141.8 478.9,142.4 479.3,142.4 479.7,141.8 480.1,140.7 480.6,138.9 481.0,136.7 481.4,133.9 481.8,130.7 482.2,127.0 482.6,123.1 483.0,118.8 483.5,114.3 483.9,109.7 484.3,105.0 484.7,100.3 485.1,95.7 485.5,91.2 485.9,86.9 486.4,83.0 486.8,79.3 487.2,76.1 487.6,73.3 488.0,71.1 488.4,69.3 488.8,68.2 489.3,67.6 489.7,67.6 490.1,68.2 490.5,69.3 490.9,71.1 491.3,73.3 491.7,76.1 492.2,79.3 492.6,83.0 493.0,86.9 493.4,91.2 493.8,95.7 494.2,100.3 494.6,105.0 495.1,109.7 495.5,114.3 495.9,118.8 496.3,123.1 496.7,127.0 497.1,130.7 497.5,133.9 498.0,136.7 498.4,138.9 498.8,140.7 499.2,141.8 499.6,142.4 500.0,142.4 500.4,141.8 500.9,140.7 501.3,138.9 501.7,136.7 502.1,133.9 502.5,130.7 502.9,127.0 503.3,123.1 503.8,118.8 504.2,114.3 504.6,109.7 505.0,105.0 505.4,100.3 505.8,95.7 506.2,91.2 506.7,86.9 507.1,83.0 507.5,79.3 507.9,76.1 508.3,73.3 508.7,71.1 509.1,69.3 509.6,68.2 510.0,67.6 510.4,67.6 510.8,68.2 511.2,69.3 511.6,71.1 512.0,73.3 512.5,76.1 512.9,79.3 513.3,83.0 513.7,86.9 514.1,91.2 514.5,95.7 514.9,100.3 515.4,105.0 515.8,109.7 516.2,114.3 516.6,118.8 517.0,123.1 517.4,127.0 517.8,130.7 518.3,133.9 518.7,136.7 519.1,138.9 519.5,140.7 519.9,141.8 520.3,142.4 520.7,142.4 521.2,141.8 521.6,140.7 522.0,138.9 522.4,136.7 522.8,133.9 523.2,130.7 523.6,127.0 524.1,123.1 524.5,118.8 524.9,114.3 525.3,109.7 525.7,105.0 526.1,100.3 526.5,95.7 527.0,91.2 527.4,86.9 527.8,83.0 528.2,79.3 528.6,76.1 529.0,73.3 529.4,71.1 529.9,69.3 530.3,68.2 530.7,67.6 531.1,67.6 531.5,68.2 531.9,69.3 532.3,71.1 532.8,73.3 533.2,76.1 533.6,79.3 534.0,83.0 534.4,86.9 534.8,91.2 535.2,95.7 535.7,100.3 536.1,105.0 536.5,109.7 536.9,114.3 537.3,118.8 537.7,123.1 538.1,127.0 538.6,130.7 539.0,133.9 539.4,136.7 539.8,138.9 540.2,140.7 540.6,141.8 541.0,142.4 541.5,142.4 541.9,141.8 542.3,140.7 542.7,138.9 543.1,136.7 543.5,133.9 543.9,130.7 544.4,127.0 544.8,123.1 545.2,118.8 545.6,114.3 546.0,109.7 546.4,105.0 546.8,100.3 547.3,95.7 547.7,91.2 548.1,86.9 548.5,83.0 548.9,79.3 549.3,76.1 549.7,73.3 550.2,71.1 550.6,69.3 551.0,68.2 551.4,67.6 551.8,67.6 552.2,68.2 552.6,69.3 553.1,71.1 553.5,73.3 553.9,76.1 554.3,79.3 554.7,83.0 555.1,86.9 555.5,91.2 556.0,95.7 556.4,100.3 556.8,105.0 557.2,109.7 557.6,114.3 558.0,118.8 558.4,123.1 558.9,127.0 559.3,130.7 559.7,133.9 560.1,136.7 560.5,138.9 560.9,140.7 561.3,141.8 561.8,142.4 562.2,142.4 562.6,141.8 563.0,140.7 563.4,138.9 563.8,136.7 564.2,133.9 564.7,130.7 565.1,127.0 565.5,123.1 565.9,118.8 566.3,114.3 566.7,109.7 567.1,105.0 567.6,100.3 568.0,95.7 568.4,91.2 568.8,86.9 569.2,83.0 569.6,79.3 570.0,76.1 570.5,73.3 570.9,71.1 571.3,69.3 571.7,68.2 572.1,67.6 572.5,67.6 572.9,68.2 573.4,69.3 573.8,71.1 574.2,73.3 574.6,76.1 575.0,79.3 575.4,83.0 575.8,86.9 576.3,91.2 576.7,95.7 577.1,100.3 577.5,105.0 577.9,109.7 578.3,114.3 578.7,118.8 579.2,123.1 579.6,127.0 580.0,130.7 580.4,133.9 580.8,136.7 581.2,138.9 581.6,140.7 582.1,141.8 582.5,142.4 582.9,142.4 583.3,141.8 583.7,140.7 584.1,138.9 584.5,136.7 585.0,133.9 585.4,130.7 585.8,127.0 586.2,123.1 586.6,118.8 587.0,114.3 587.4,109.7 587.9,105.0 588.3,100.3 588.7,95.7 589.1,91.2 589.5,86.9 589.9,83.0 590.3,79.3 590.8,76.1 591.2,73.3 591.6,71.1 592.0,69.3 592.4,68.2 592.8,67.6 593.2,67.6 593.7,68.2 594.1,69.3 594.5,71.1 594.9,73.3 595.3,76.1 595.7,79.3 596.1,83.0 596.6,86.9 597.0,91.2 597.4,95.7 597.8,100.3 598.2,105.0 598.6,109.7 599.0,114.3 599.5,118.8 599.9,123.1 600.3,127.0 600.7,130.7 601.1,133.9 601.5,136.7 601.9,138.9 602.4,140.7 602.8,141.8 603.2,142.4 603.6,142.4 604.0,141.8 604.4,140.7 604.8,138.9 605.3,136.7 605.7,133.9 606.1,130.7 606.5,127.0 606.9,123.1 607.3,118.8 607.7,114.3 608.2,109.7 608.6,105.0 609.0,100.3 609.4,95.7 609.8,91.2 610.2,86.9 610.6,83.0 611.1,79.3 611.5,76.1 611.9,73.3 612.3,71.1 612.7,69.3 613.1,68.2 613.5,67.6 614.0,67.6 614.4,68.2 614.8,69.3 615.2,71.1 615.6,73.3 616.0,76.1 616.4,79.3 616.9,83.0 617.3,86.9 617.7,91.2 618.1,95.7 618.5,100.3 618.9,105.0 619.3,109.7 619.8,114.3 620.2,118.8 620.6,123.1 621.0,127.0 621.4,130.7 621.8,133.9 622.2,136.7 622.7,138.9 623.1,140.7 623.5,141.8 623.9,142.4 624.3,142.4 624.7,141.8 625.1,140.7 625.6,138.9 626.0,136.7 626.4,133.9 626.8,130.7 627.2,127.0 627.6,123.1 628.0,118.8 628.5,114.3 628.9,109.7 629.3,105.0 629.7,100.3 630.1,95.7 630.5,91.2 630.9,86.9 631.4,83.0 631.8,79.3 632.2,76.1 632.6,73.3 633.0,71.1 633.4,69.3 633.8,68.2 634.3,67.6 634.7,67.6 635.1,68.2 635.5,69.3 635.9,71.1 636.3,73.3 636.7,76.1 637.2,79.3 637.6,83.0 638.0,86.9 638.4,91.2 638.8,95.7 639.2,100.3 639.6,105.0 640.1,109.7 640.5,114.3 640.9,118.8 641.3,123.1 641.7,127.0 642.1,130.7 642.5,133.9 643.0,136.7 643.4,138.9 643.8,140.7 644.2,141.8 644.6,142.4 645.0,142.4 645.4,141.8 645.9,140.7 646.3,138.9 646.7,136.7 647.1,133.9 647.5,130.7 647.9,127.0 648.3,123.1 648.8,118.8 649.2,114.3 649.6,109.7 650.0,105.0" fill="none" stroke="#1f5fa8" stroke-width="2.2" stroke-linejoin="round" stroke-linecap="round"/>
<text x="339.3" y="40.0" font-size="11" text-anchor="middle" font-weight="700" fill="#c0392b">khoảng trống</text>
<text x="20.0" y="222.0" font-size="14" text-anchor="start" font-weight="700" fill="#1a2332">(B)</text>
<rect x="70.0" y="205.0" width="580.0" height="120.0" rx="0" fill="#fbfcfd" stroke="#8a96a3" stroke-width="1"/>
<line x1="111.4" y1="205.0" x2="111.4" y2="325.0" stroke="#dfe5ec" stroke-width="1" stroke-linecap="round"/>
<line x1="152.9" y1="205.0" x2="152.9" y2="325.0" stroke="#dfe5ec" stroke-width="1" stroke-linecap="round"/>
<line x1="194.3" y1="205.0" x2="194.3" y2="325.0" stroke="#dfe5ec" stroke-width="1" stroke-linecap="round"/>
<line x1="235.7" y1="205.0" x2="235.7" y2="325.0" stroke="#dfe5ec" stroke-width="1" stroke-linecap="round"/>
<line x1="277.1" y1="205.0" x2="277.1" y2="325.0" stroke="#dfe5ec" stroke-width="1" stroke-linecap="round"/>
<line x1="318.6" y1="205.0" x2="318.6" y2="325.0" stroke="#dfe5ec" stroke-width="1" stroke-linecap="round"/>
<line x1="360.0" y1="205.0" x2="360.0" y2="325.0" stroke="#dfe5ec" stroke-width="1" stroke-linecap="round"/>
<line x1="401.4" y1="205.0" x2="401.4" y2="325.0" stroke="#dfe5ec" stroke-width="1" stroke-linecap="round"/>
<line x1="442.9" y1="205.0" x2="442.9" y2="325.0" stroke="#dfe5ec" stroke-width="1" stroke-linecap="round"/>
<line x1="484.3" y1="205.0" x2="484.3" y2="325.0" stroke="#dfe5ec" stroke-width="1" stroke-linecap="round"/>
<line x1="525.7" y1="205.0" x2="525.7" y2="325.0" stroke="#dfe5ec" stroke-width="1" stroke-linecap="round"/>
<line x1="567.1" y1="205.0" x2="567.1" y2="325.0" stroke="#dfe5ec" stroke-width="1" stroke-linecap="round"/>
<line x1="608.6" y1="205.0" x2="608.6" y2="325.0" stroke="#dfe5ec" stroke-width="1" stroke-linecap="round"/>
<line x1="70.0" y1="235.0" x2="650.0" y2="235.0" stroke="#dfe5ec" stroke-width="1" stroke-linecap="round"/>
<line x1="70.0" y1="265.0" x2="650.0" y2="265.0" stroke="#dfe5ec" stroke-width="1" stroke-linecap="round"/>
<line x1="70.0" y1="295.0" x2="650.0" y2="295.0" stroke="#dfe5ec" stroke-width="1" stroke-linecap="round"/>
<polyline points="70.0,219.0 70.2,219.0 70.5,219.0 70.7,219.0 71.0,219.0 71.2,219.0 71.5,219.0 71.7,219.0 71.9,219.0 72.2,219.0 72.4,219.0 72.7,219.0 72.9,219.0 73.1,219.0 73.4,219.0 73.6,219.0 73.9,219.0 74.1,219.0 74.4,219.0 74.6,219.0 74.8,219.0 75.1,219.0 75.3,219.0 75.6,219.0 75.8,219.0 76.0,219.0 76.3,219.0 76.5,219.0 76.8,219.0 77.0,219.0 77.3,219.0 77.5,219.0 77.7,219.0 78.0,219.0 78.2,219.0 78.5,219.0 78.7,219.0 78.9,219.0 79.2,219.0 79.4,219.0 79.7,219.0 79.9,219.0 80.1,219.0 80.4,311.0 80.6,311.0 80.9,311.0 81.1,311.0 81.4,311.0 81.6,311.0 81.8,311.0 82.1,311.0 82.3,311.0 82.6,311.0 82.8,311.0 83.0,311.0 83.3,311.0 83.5,311.0 83.8,311.0 84.0,311.0 84.3,311.0 84.5,311.0 84.7,311.0 85.0,311.0 85.2,311.0 85.5,311.0 85.7,311.0 85.9,311.0 86.2,311.0 86.4,311.0 86.7,311.0 86.9,311.0 87.2,311.0 87.4,311.0 87.6,311.0 87.9,311.0 88.1,311.0 88.4,311.0 88.6,311.0 88.9,311.0 89.1,311.0 89.3,311.0 89.6,311.0 89.8,311.0 90.1,311.0 90.3,311.0 90.5,311.0 90.8,219.0 91.0,219.0 91.3,219.0 91.5,219.0 91.8,219.0 92.0,219.0 92.2,219.0 92.5,219.0 92.7,219.0 93.0,219.0 93.2,219.0 93.4,219.0 93.7,219.0 93.9,219.0 94.2,219.0 94.4,219.0 94.7,219.0 94.9,219.0 95.1,219.0 95.4,219.0 95.6,219.0 95.9,219.0 96.1,219.0 96.3,219.0 96.6,219.0 96.8,219.0 97.1,219.0 97.3,219.0 97.5,219.0 97.8,219.0 98.0,219.0 98.3,219.0 98.5,219.0 98.8,219.0 99.0,219.0 99.2,219.0 99.5,219.0 99.7,219.0 100.0,219.0 100.2,219.0 100.4,219.0 100.7,219.0 100.9,219.0 101.2,311.0 101.4,311.0 101.7,311.0 101.9,311.0 102.1,311.0 102.4,311.0 102.6,311.0 102.9,311.0 103.1,311.0 103.3,311.0 103.6,311.0 103.8,311.0 104.1,311.0 104.3,311.0 104.6,311.0 104.8,311.0 105.0,311.0 105.3,311.0 105.5,311.0 105.8,311.0 106.0,311.0 106.2,311.0 106.5,311.0 106.7,311.0 107.0,311.0 107.2,311.0 107.5,311.0 107.7,311.0 107.9,311.0 108.2,311.0 108.4,311.0 108.7,311.0 108.9,311.0 109.2,311.0 109.4,311.0 109.6,311.0 109.9,311.0 110.1,311.0 110.4,311.0 110.6,311.0 110.8,311.0 111.1,311.0 111.3,311.0 111.6,219.0 111.8,219.0 112.1,219.0 112.3,219.0 112.5,219.0 112.8,219.0 113.0,219.0 113.3,219.0 113.5,219.0 113.7,219.0 114.0,219.0 114.2,219.0 114.5,219.0 114.7,219.0 115.0,219.0 115.2,219.0 115.4,219.0 115.7,219.0 115.9,219.0 116.2,219.0 116.4,219.0 116.6,219.0 116.9,219.0 117.1,219.0 117.4,219.0 117.6,219.0 117.8,219.0 118.1,219.0 118.3,219.0 118.6,219.0 118.8,219.0 119.1,219.0 119.3,219.0 119.5,219.0 119.8,219.0 120.0,219.0 120.3,219.0 120.5,219.0 120.7,219.0 121.0,219.0 121.2,219.0 121.5,219.0 121.7,219.0 122.0,311.0 122.2,311.0 122.4,311.0 122.7,311.0 122.9,311.0 123.2,311.0 123.4,311.0 123.7,311.0 123.9,311.0 124.1,311.0 124.4,311.0 124.6,311.0 124.9,311.0 125.1,311.0 125.3,311.0 125.6,311.0 125.8,311.0 126.1,311.0 126.3,311.0 126.6,311.0 126.8,311.0 127.0,311.0 127.3,311.0 127.5,311.0 127.8,311.0 128.0,311.0 128.2,311.0 128.5,311.0 128.7,311.0 129.0,311.0 129.2,311.0 129.5,311.0 129.7,311.0 129.9,311.0 130.2,311.0 130.4,311.0 130.7,311.0 130.9,311.0 131.1,311.0 131.4,311.0 131.6,311.0 131.9,311.0 132.1,311.0 132.3,219.0 132.6,219.0 132.8,219.0 133.1,219.0 133.3,219.0 133.6,219.0 133.8,219.0 134.0,219.0 134.3,219.0 134.5,219.0 134.8,219.0 135.0,219.0 135.2,219.0 135.5,219.0 135.7,219.0 136.0,219.0 136.2,219.0 136.5,219.0 136.7,219.0 136.9,219.0 137.2,219.0 137.4,219.0 137.7,219.0 137.9,219.0 138.1,219.0 138.4,219.0 138.6,219.0 138.9,219.0 139.1,219.0 139.4,219.0 139.6,219.0 139.8,219.0 140.1,219.0 140.3,219.0 140.6,219.0 140.8,219.0 141.1,219.0 141.3,219.0 141.5,219.0 141.8,219.0 142.0,219.0 142.3,219.0 142.5,311.0 142.7,311.0 143.0,311.0 143.2,311.0 143.5,311.0 143.7,311.0 143.9,311.0 144.2,311.0 144.4,311.0 144.7,311.0 144.9,311.0 145.2,311.0 145.4,311.0 145.6,311.0 145.9,311.0 146.1,311.0 146.4,311.0 146.6,311.0 146.9,311.0 147.1,311.0 147.3,311.0 147.6,311.0 147.8,311.0 148.1,311.0 148.3,311.0 148.5,311.0 148.8,311.0 149.0,311.0 149.3,311.0 149.5,311.0 149.8,311.0 150.0,311.0 150.2,311.0 150.5,311.0 150.7,311.0 151.0,311.0 151.2,311.0 151.4,311.0 151.7,311.0 151.9,311.0 152.2,311.0 152.4,311.0 152.7,311.0 152.9,219.0 153.1,219.0 153.4,219.0 153.6,219.0 153.9,219.0 154.1,219.0 154.3,219.0 154.6,219.0 154.8,219.0 155.1,219.0 155.3,219.0 155.5,219.0 155.8,219.0 156.0,219.0 156.3,219.0 156.5,219.0 156.8,219.0 157.0,219.0 157.2,219.0 157.5,219.0 157.7,219.0 158.0,219.0 158.2,219.0 158.4,219.0 158.7,219.0 158.9,219.0 159.2,219.0 159.4,219.0 159.7,219.0 159.9,219.0 160.1,219.0 160.4,219.0 160.6,219.0 160.9,219.0 161.1,219.0 161.3,219.0 161.6,219.0 161.8,219.0 162.1,219.0 162.3,219.0 162.6,219.0 162.8,219.0 163.0,219.0 163.3,311.0 163.5,311.0 163.8,311.0 164.0,311.0 164.2,311.0 164.5,311.0 164.7,311.0 165.0,311.0 165.2,311.0 165.5,311.0 165.7,311.0 165.9,311.0 166.2,311.0 166.4,311.0 166.7,311.0 166.9,311.0 167.2,311.0 167.4,311.0 167.6,311.0 167.9,311.0 168.1,311.0 168.4,311.0 168.6,311.0 168.8,311.0 169.1,311.0 169.3,311.0 169.6,311.0 169.8,311.0 170.0,311.0 170.3,311.0 170.5,311.0 170.8,311.0 171.0,311.0 171.3,311.0 171.5,311.0 171.7,311.0 172.0,311.0 172.2,311.0 172.5,311.0 172.7,311.0 172.9,311.0 173.2,311.0 173.4,311.0 173.7,219.0 173.9,219.0 174.2,219.0 174.4,219.0 174.6,219.0 174.9,219.0 175.1,219.0 175.4,219.0 175.6,219.0 175.8,219.0 176.1,219.0 176.3,219.0 176.6,219.0 176.8,219.0 177.1,219.0 177.3,219.0 177.5,219.0 177.8,219.0 178.0,219.0 178.3,219.0 178.5,219.0 178.8,219.0 179.0,219.0 179.2,219.0 179.5,219.0 179.7,219.0 180.0,219.0 180.2,219.0 180.4,219.0 180.7,219.0 180.9,219.0 181.2,219.0 181.4,219.0 181.7,219.0 181.9,219.0 182.1,219.0 182.4,219.0 182.6,219.0 182.9,219.0 183.1,219.0 183.3,219.0 183.6,219.0 183.8,219.0 184.1,311.0 184.3,311.0 184.6,311.0 184.8,311.0 185.0,311.0 185.3,311.0 185.5,311.0 185.8,311.0 186.0,311.0 186.2,311.0 186.5,311.0 186.7,311.0 187.0,311.0 187.2,311.0 187.5,311.0 187.7,311.0 187.9,311.0 188.2,311.0 188.4,311.0 188.7,311.0 188.9,311.0 189.1,311.0 189.4,311.0 189.6,311.0 189.9,311.0 190.1,311.0 190.3,311.0 190.6,311.0 190.8,311.0 191.1,311.0 191.3,311.0 191.6,311.0 191.8,311.0 192.0,311.0 192.3,311.0 192.5,311.0 192.8,311.0 193.0,311.0 193.2,311.0 193.5,311.0 193.7,311.0 194.0,311.0 194.2,311.0 194.5,219.0 194.7,219.0 194.9,219.0 195.2,219.0 195.4,219.0 195.7,219.0 195.9,219.0 196.2,219.0 196.4,219.0 196.6,219.0 196.9,219.0 197.1,219.0 197.4,219.0 197.6,219.0 197.8,219.0 198.1,219.0 198.3,219.0 198.6,219.0 198.8,219.0 199.1,219.0 199.3,219.0 199.5,219.0 199.8,219.0 200.0,219.0 200.3,219.0 200.5,219.0 200.7,219.0 201.0,219.0 201.2,219.0 201.5,219.0 201.7,219.0 202.0,219.0 202.2,219.0 202.4,219.0 202.7,219.0 202.9,219.0 203.2,219.0 203.4,219.0 203.6,219.0 203.9,219.0 204.1,219.0 204.4,219.0 204.6,219.0 204.8,311.0 205.1,311.0 205.3,311.0 205.6,311.0 205.8,311.0 206.1,311.0 206.3,311.0 206.5,311.0 206.8,311.0 207.0,311.0 207.3,311.0 207.5,311.0 207.7,311.0 208.0,311.0 208.2,311.0 208.5,311.0 208.7,311.0 209.0,311.0 209.2,311.0 209.4,311.0 209.7,311.0 209.9,311.0 210.2,311.0 210.4,311.0 210.6,311.0 210.9,311.0 211.1,311.0 211.4,311.0 211.6,311.0 211.9,311.0 212.1,311.0 212.3,311.0 212.6,311.0 212.8,311.0 213.1,311.0 213.3,311.0 213.6,311.0 213.8,311.0 214.0,311.0 214.3,311.0 214.5,311.0 214.8,311.0 215.0,219.0 215.2,219.0 215.5,219.0 215.7,219.0 216.0,219.0 216.2,219.0 216.4,219.0 216.7,219.0 216.9,219.0 217.2,219.0 217.4,219.0 217.7,219.0 217.9,219.0 218.1,219.0 218.4,219.0 218.6,219.0 218.9,219.0 219.1,219.0 219.3,219.0 219.6,219.0 219.8,219.0 220.1,219.0 220.3,219.0 220.6,219.0 220.8,219.0 221.0,219.0 221.3,219.0 221.5,219.0 221.8,219.0 222.0,219.0 222.3,219.0 222.5,219.0 222.7,219.0 223.0,219.0 223.2,219.0 223.5,219.0 223.7,219.0 223.9,219.0 224.2,219.0 224.4,219.0 224.7,219.0 224.9,219.0 225.2,219.0 225.4,311.0 225.6,311.0 225.9,311.0 226.1,311.0 226.4,311.0 226.6,311.0 226.8,311.0 227.1,311.0 227.3,311.0 227.6,311.0 227.8,311.0 228.0,311.0 228.3,311.0 228.5,311.0 228.8,311.0 229.0,311.0 229.3,311.0 229.5,311.0 229.7,311.0 230.0,311.0 230.2,311.0 230.5,311.0 230.7,311.0 230.9,311.0 231.2,311.0 231.4,311.0 231.7,311.0 231.9,311.0 232.2,311.0 232.4,311.0 232.6,311.0 232.9,311.0 233.1,311.0 233.4,311.0 233.6,311.0 233.9,311.0 234.1,311.0 234.3,311.0 234.6,311.0 234.8,311.0 235.1,311.0 235.3,311.0 235.5,311.0 235.8,219.0 236.0,219.0 236.3,219.0 236.5,219.0 236.8,219.0 237.0,219.0 237.2,219.0 237.5,219.0 237.7,219.0 238.0,219.0 238.2,219.0 238.4,219.0 238.7,219.0 238.9,219.0 239.2,219.0 239.4,219.0 239.6,219.0 239.9,219.0 240.1,219.0 240.4,219.0 240.6,219.0 240.9,219.0 241.1,219.0 241.3,219.0 241.6,219.0 241.8,219.0 242.1,219.0 242.3,219.0 242.5,219.0 242.8,219.0 243.0,219.0 243.3,219.0 243.5,219.0 243.8,219.0 244.0,219.0 244.2,219.0 244.5,219.0 244.7,219.0 245.0,219.0 245.2,219.0 245.4,219.0 245.7,219.0 245.9,219.0 246.2,311.0 246.4,311.0 246.7,311.0 246.9,311.0 247.1,311.0 247.4,311.0 247.6,311.0 247.9,311.0 248.1,311.0 248.3,311.0 248.6,311.0 248.8,311.0 249.1,311.0 249.3,311.0 249.6,311.0 249.8,311.0 250.0,311.0 250.3,311.0 250.5,311.0 250.8,311.0 251.0,311.0 251.2,311.0 251.5,311.0 251.7,311.0 252.0,311.0 252.2,311.0 252.5,311.0 252.7,311.0 252.9,311.0 253.2,311.0 253.4,311.0 253.7,311.0 253.9,311.0 254.2,311.0 254.4,311.0 254.6,311.0 254.9,311.0 255.1,311.0 255.4,311.0 255.6,311.0 255.8,311.0 256.1,311.0 256.3,311.0 256.6,219.0 256.8,219.0 257.1,219.0 257.3,219.0 257.5,219.0 257.8,219.0 258.0,219.0 258.3,219.0 258.5,219.0 258.7,219.0 259.0,219.0 259.2,219.0 259.5,219.0 259.7,219.0 260.0,219.0 260.2,219.0 260.4,219.0 260.7,219.0 260.9,219.0 261.2,219.0 261.4,219.0 261.6,219.0 261.9,219.0 262.1,219.0 262.4,219.0 262.6,219.0 262.9,219.0 263.1,219.0 263.3,219.0 263.6,219.0 263.8,219.0 264.1,219.0 264.3,219.0 264.5,219.0 264.8,219.0 265.0,219.0 265.3,219.0 265.5,219.0 265.8,219.0 266.0,219.0 266.2,219.0 266.5,219.0 266.7,219.0 267.0,311.0 267.2,311.0 267.4,311.0 267.7,311.0 267.9,311.0 268.2,311.0 268.4,311.0 268.6,311.0 268.9,311.0 269.1,311.0 269.4,311.0 269.6,311.0 269.9,311.0 270.1,311.0 270.3,311.0 270.6,311.0 270.8,311.0 271.1,311.0 271.3,311.0 271.6,311.0 271.8,311.0 272.0,311.0 272.3,311.0 272.5,311.0 272.8,311.0 273.0,311.0 273.2,311.0 273.5,311.0 273.7,311.0 274.0,311.0 274.2,311.0 274.4,311.0 274.7,311.0 274.9,311.0 275.2,311.0 275.4,311.0 275.7,311.0 275.9,311.0 276.1,311.0 276.4,311.0 276.6,311.0 276.9,311.0 277.1,311.0 277.3,219.0 277.6,219.0 277.8,219.0 278.1,219.0 278.3,219.0 278.6,219.0 278.8,219.0 279.0,219.0 279.3,219.0 279.5,219.0 279.8,219.0 280.0,219.0 280.2,219.0 280.5,219.0 280.7,219.0 281.0,219.0 281.2,219.0 281.5,219.0 281.7,219.0 281.9,219.0 282.2,219.0 282.4,219.0 282.7,219.0 282.9,219.0 283.1,219.0 283.4,219.0 283.6,219.0 283.9,219.0 284.1,219.0 284.4,219.0 284.6,219.0 284.8,219.0 285.1,219.0 285.3,219.0 285.6,219.0 285.8,219.0 286.1,219.0 286.3,219.0 286.5,219.0 286.8,219.0 287.0,219.0 287.3,219.0 287.5,311.0 287.7,311.0 288.0,311.0 288.2,311.0 288.5,311.0 288.7,311.0 288.9,311.0 289.2,311.0 289.4,311.0 289.7,311.0 289.9,311.0 290.2,311.0 290.4,311.0 290.6,311.0 290.9,311.0 291.1,311.0 291.4,311.0 291.6,311.0 291.9,311.0 292.1,311.0 292.3,311.0 292.6,311.0 292.8,311.0 293.1,311.0 293.3,311.0 293.5,311.0 293.8,311.0 294.0,311.0 294.3,311.0 294.5,311.0 294.8,311.0 295.0,311.0 295.2,311.0 295.5,311.0 295.7,311.0 296.0,311.0 296.2,311.0 296.4,311.0 296.7,311.0 296.9,311.0 297.2,311.0 297.4,311.0 297.7,311.0 297.9,219.0 298.1,219.0 298.4,219.0 298.6,219.0 298.9,219.0 299.1,219.0 299.3,219.0 299.6,219.0 299.8,219.0 300.1,219.0 300.3,219.0 300.6,219.0 300.8,219.0 301.0,219.0 301.3,219.0 301.5,219.0 301.8,219.0 302.0,219.0 302.2,219.0 302.5,219.0 302.7,219.0 303.0,219.0 303.2,219.0 303.4,219.0 303.7,219.0 303.9,219.0 304.2,219.0 304.4,219.0 304.7,219.0 304.9,219.0 305.1,219.0 305.4,219.0 305.6,219.0 305.9,219.0 306.1,219.0 306.3,219.0 306.6,219.0 306.8,219.0 307.1,219.0 307.3,219.0 307.6,219.0 307.8,219.0 308.0,219.0 308.3,311.0 308.5,311.0 308.8,311.0 309.0,311.0 309.2,311.0 309.5,311.0 309.7,311.0 310.0,311.0 310.2,311.0 310.5,311.0 310.7,311.0 310.9,311.0 311.2,311.0 311.4,311.0 311.7,311.0 311.9,311.0 312.1,311.0 312.4,311.0 312.6,311.0 312.9,311.0 313.1,311.0 313.4,311.0 313.6,311.0 313.8,311.0 314.1,311.0 314.3,311.0 314.6,311.0 314.8,311.0 315.0,311.0 315.3,311.0 315.5,311.0 315.8,311.0 316.0,311.0 316.3,311.0 316.5,311.0 316.7,311.0 317.0,311.0 317.2,311.0 317.5,311.0 317.7,311.0 317.9,311.0 318.2,311.0 318.4,311.0 318.7,311.0 318.9,311.0 319.2,311.0 319.4,311.0 319.6,311.0 319.9,311.0 320.1,311.0 320.4,311.0 320.6,311.0 320.9,311.0 321.1,311.0 321.3,311.0 321.6,311.0 321.8,311.0 322.1,311.0 322.3,311.0 322.5,311.0 322.8,311.0 323.0,311.0 323.3,311.0 323.5,311.0 323.8,311.0 324.0,311.0 324.2,311.0 324.5,311.0 324.7,311.0 325.0,311.0 325.2,311.0 325.4,311.0 325.7,311.0 325.9,311.0 326.2,311.0 326.4,311.0 326.6,311.0 326.9,311.0 327.1,311.0 327.4,311.0 327.6,311.0 327.9,311.0 328.1,311.0 328.3,311.0 328.6,311.0 328.8,311.0 329.1,311.0 329.3,311.0 329.6,311.0 329.8,311.0 330.0,311.0 330.3,311.0 330.5,311.0 330.8,311.0 331.0,311.0 331.2,311.0 331.5,311.0 331.7,311.0 332.0,311.0 332.2,311.0 332.5,311.0 332.7,311.0 332.9,311.0 333.2,311.0 333.4,311.0 333.7,311.0 333.9,311.0 334.1,311.0 334.4,311.0 334.6,311.0 334.9,311.0 335.1,311.0 335.4,311.0 335.6,311.0 335.8,311.0 336.1,311.0 336.3,311.0 336.6,311.0 336.8,311.0 337.0,311.0 337.3,311.0 337.5,311.0 337.8,311.0 338.0,311.0 338.3,311.0 338.5,311.0 338.7,311.0 339.0,311.0 339.2,311.0 339.5,311.0 339.7,311.0 339.9,311.0 340.2,311.0 340.4,311.0 340.7,311.0 340.9,311.0 341.2,311.0 341.4,311.0 341.6,311.0 341.9,311.0 342.1,311.0 342.4,311.0 342.6,311.0 342.8,311.0 343.1,311.0 343.3,311.0 343.6,311.0 343.8,311.0 344.1,311.0 344.3,311.0 344.5,311.0 344.8,311.0 345.0,311.0 345.3,311.0 345.5,311.0 345.7,311.0 346.0,311.0 346.2,311.0 346.5,311.0 346.7,311.0 346.9,311.0 347.2,311.0 347.4,311.0 347.7,311.0 347.9,311.0 348.2,311.0 348.4,311.0 348.6,311.0 348.9,311.0 349.1,311.0 349.4,311.0 349.6,311.0 349.8,311.0 350.1,311.0 350.3,311.0 350.6,311.0 350.8,311.0 351.1,311.0 351.3,311.0 351.5,311.0 351.8,311.0 352.0,311.0 352.3,311.0 352.5,311.0 352.7,311.0 353.0,311.0 353.2,311.0 353.5,311.0 353.7,311.0 354.0,311.0 354.2,311.0 354.4,311.0 354.7,311.0 354.9,311.0 355.2,311.0 355.4,311.0 355.6,311.0 355.9,311.0 356.1,311.0 356.4,311.0 356.6,311.0 356.9,311.0 357.1,311.0 357.3,311.0 357.6,311.0 357.8,311.0 358.1,311.0 358.3,311.0 358.6,311.0 358.8,311.0 359.0,311.0 359.3,311.0 359.5,311.0 359.8,311.0 360.0,219.0 360.2,219.0 360.5,219.0 360.7,219.0 361.0,219.0 361.2,219.0 361.5,219.0 361.7,219.0 361.9,219.0 362.2,219.0 362.4,219.0 362.7,219.0 362.9,219.0 363.1,219.0 363.4,219.0 363.6,219.0 363.9,219.0 364.1,219.0 364.4,219.0 364.6,219.0 364.8,219.0 365.1,219.0 365.3,219.0 365.6,219.0 365.8,219.0 366.0,219.0 366.3,219.0 366.5,219.0 366.8,219.0 367.0,219.0 367.3,219.0 367.5,219.0 367.7,219.0 368.0,219.0 368.2,219.0 368.5,219.0 368.7,219.0 368.9,219.0 369.2,219.0 369.4,219.0 369.7,219.0 369.9,219.0 370.2,219.0 370.4,311.0 370.6,311.0 370.9,311.0 371.1,311.0 371.4,311.0 371.6,311.0 371.8,311.0 372.1,311.0 372.3,311.0 372.6,311.0 372.8,311.0 373.1,311.0 373.3,311.0 373.5,311.0 373.8,311.0 374.0,311.0 374.3,311.0 374.5,311.0 374.7,311.0 375.0,311.0 375.2,311.0 375.5,311.0 375.7,311.0 375.9,311.0 376.2,311.0 376.4,311.0 376.7,311.0 376.9,311.0 377.2,311.0 377.4,311.0 377.6,311.0 377.9,311.0 378.1,311.0 378.4,311.0 378.6,311.0 378.8,311.0 379.1,311.0 379.3,311.0 379.6,311.0 379.8,311.0 380.1,311.0 380.3,311.0 380.5,311.0 380.8,219.0 381.0,219.0 381.3,219.0 381.5,219.0 381.7,219.0 382.0,219.0 382.2,219.0 382.5,219.0 382.7,219.0 383.0,219.0 383.2,219.0 383.4,219.0 383.7,219.0 383.9,219.0 384.2,219.0 384.4,219.0 384.6,219.0 384.9,219.0 385.1,219.0 385.4,219.0 385.6,219.0 385.9,219.0 386.1,219.0 386.3,219.0 386.6,219.0 386.8,219.0 387.1,219.0 387.3,219.0 387.6,219.0 387.8,219.0 388.0,219.0 388.3,219.0 388.5,219.0 388.8,219.0 389.0,219.0 389.2,219.0 389.5,219.0 389.7,219.0 390.0,219.0 390.2,219.0 390.4,219.0 390.7,219.0 390.9,219.0 391.2,311.0 391.4,311.0 391.7,311.0 391.9,311.0 392.1,311.0 392.4,311.0 392.6,311.0 392.9,311.0 393.1,311.0 393.4,311.0 393.6,311.0 393.8,311.0 394.1,311.0 394.3,311.0 394.6,311.0 394.8,311.0 395.0,311.0 395.3,311.0 395.5,311.0 395.8,311.0 396.0,311.0 396.2,311.0 396.5,311.0 396.7,311.0 397.0,311.0 397.2,311.0 397.5,311.0 397.7,311.0 397.9,311.0 398.2,311.0 398.4,311.0 398.7,311.0 398.9,311.0 399.1,311.0 399.4,311.0 399.6,311.0 399.9,311.0 400.1,311.0 400.4,311.0 400.6,311.0 400.8,311.0 401.1,311.0 401.3,311.0 401.6,219.0 401.8,219.0 402.1,219.0 402.3,219.0 402.5,219.0 402.8,219.0 403.0,219.0 403.3,219.0 403.5,219.0 403.7,219.0 404.0,219.0 404.2,219.0 404.5,219.0 404.7,219.0 404.9,219.0 405.2,219.0 405.4,219.0 405.7,219.0 405.9,219.0 406.2,219.0 406.4,219.0 406.6,219.0 406.9,219.0 407.1,219.0 407.4,219.0 407.6,219.0 407.9,219.0 408.1,219.0 408.3,219.0 408.6,219.0 408.8,219.0 409.1,219.0 409.3,219.0 409.5,219.0 409.8,219.0 410.0,219.0 410.3,219.0 410.5,219.0 410.8,219.0 411.0,219.0 411.2,219.0 411.5,219.0 411.7,219.0 412.0,311.0 412.2,311.0 412.4,311.0 412.7,311.0 412.9,311.0 413.2,311.0 413.4,311.0 413.7,311.0 413.9,311.0 414.1,311.0 414.4,311.0 414.6,311.0 414.9,311.0 415.1,311.0 415.3,311.0 415.6,311.0 415.8,311.0 416.1,311.0 416.3,311.0 416.6,311.0 416.8,311.0 417.0,311.0 417.3,311.0 417.5,311.0 417.8,311.0 418.0,311.0 418.2,311.0 418.5,311.0 418.7,311.0 419.0,311.0 419.2,311.0 419.5,311.0 419.7,311.0 419.9,311.0 420.2,311.0 420.4,311.0 420.7,311.0 420.9,311.0 421.1,311.0 421.4,311.0 421.6,311.0 421.9,311.0 422.1,311.0 422.4,219.0 422.6,219.0 422.8,219.0 423.1,219.0 423.3,219.0 423.6,219.0 423.8,219.0 424.0,219.0 424.3,219.0 424.5,219.0 424.8,219.0 425.0,219.0 425.2,219.0 425.5,219.0 425.7,219.0 426.0,219.0 426.2,219.0 426.5,219.0 426.7,219.0 426.9,219.0 427.2,219.0 427.4,219.0 427.7,219.0 427.9,219.0 428.1,219.0 428.4,219.0 428.6,219.0 428.9,219.0 429.1,219.0 429.4,219.0 429.6,219.0 429.8,219.0 430.1,219.0 430.3,219.0 430.6,219.0 430.8,219.0 431.0,219.0 431.3,219.0 431.5,219.0 431.8,219.0 432.0,219.0 432.3,219.0 432.5,311.0 432.7,311.0 433.0,311.0 433.2,311.0 433.5,311.0 433.7,311.0 434.0,311.0 434.2,311.0 434.4,311.0 434.7,311.0 434.9,311.0 435.2,311.0 435.4,311.0 435.6,311.0 435.9,311.0 436.1,311.0 436.4,311.0 436.6,311.0 436.9,311.0 437.1,311.0 437.3,311.0 437.6,311.0 437.8,311.0 438.1,311.0 438.3,311.0 438.5,311.0 438.8,311.0 439.0,311.0 439.3,311.0 439.5,311.0 439.8,311.0 440.0,311.0 440.2,311.0 440.5,311.0 440.7,311.0 441.0,311.0 441.2,311.0 441.4,311.0 441.7,311.0 441.9,311.0 442.2,311.0 442.4,311.0 442.6,311.0 442.9,219.0 443.1,219.0 443.4,219.0 443.6,219.0 443.9,219.0 444.1,219.0 444.3,219.0 444.6,219.0 444.8,219.0 445.1,219.0 445.3,219.0 445.5,219.0 445.8,219.0 446.0,219.0 446.3,219.0 446.5,219.0 446.8,219.0 447.0,219.0 447.2,219.0 447.5,219.0 447.7,219.0 448.0,219.0 448.2,219.0 448.4,219.0 448.7,219.0 448.9,219.0 449.2,219.0 449.4,219.0 449.7,219.0 449.9,219.0 450.1,219.0 450.4,219.0 450.6,219.0 450.9,219.0 451.1,219.0 451.3,219.0 451.6,219.0 451.8,219.0 452.1,219.0 452.3,219.0 452.6,219.0 452.8,219.0 453.0,219.0 453.3,311.0 453.5,311.0 453.8,311.0 454.0,311.0 454.2,311.0 454.5,311.0 454.7,311.0 455.0,311.0 455.2,311.0 455.5,311.0 455.7,311.0 455.9,311.0 456.2,311.0 456.4,311.0 456.7,311.0 456.9,311.0 457.1,311.0 457.4,311.0 457.6,311.0 457.9,311.0 458.1,311.0 458.4,311.0 458.6,311.0 458.8,311.0 459.1,311.0 459.3,311.0 459.6,311.0 459.8,311.0 460.1,311.0 460.3,311.0 460.5,311.0 460.8,311.0 461.0,311.0 461.3,311.0 461.5,311.0 461.7,311.0 462.0,311.0 462.2,311.0 462.5,311.0 462.7,311.0 462.9,311.0 463.2,311.0 463.4,311.0 463.7,219.0 463.9,219.0 464.2,219.0 464.4,219.0 464.6,219.0 464.9,219.0 465.1,219.0 465.4,219.0 465.6,219.0 465.9,219.0 466.1,219.0 466.3,219.0 466.6,219.0 466.8,219.0 467.1,219.0 467.3,219.0 467.5,219.0 467.8,219.0 468.0,219.0 468.3,219.0 468.5,219.0 468.8,219.0 469.0,219.0 469.2,219.0 469.5,219.0 469.7,219.0 470.0,219.0 470.2,219.0 470.4,219.0 470.7,219.0 470.9,219.0 471.2,219.0 471.4,219.0 471.6,219.0 471.9,219.0 472.1,219.0 472.4,219.0 472.6,219.0 472.9,219.0 473.1,219.0 473.3,219.0 473.6,219.0 473.8,219.0 474.1,311.0 474.3,311.0 474.6,311.0 474.8,311.0 475.0,311.0 475.3,311.0 475.5,311.0 475.8,311.0 476.0,311.0 476.2,311.0 476.5,311.0 476.7,311.0 477.0,311.0 477.2,311.0 477.4,311.0 477.7,311.0 477.9,311.0 478.2,311.0 478.4,311.0 478.7,311.0 478.9,311.0 479.1,311.0 479.4,311.0 479.6,311.0 479.9,311.0 480.1,311.0 480.4,311.0 480.6,311.0 480.8,311.0 481.1,311.0 481.3,311.0 481.6,311.0 481.8,311.0 482.0,311.0 482.3,311.0 482.5,311.0 482.8,311.0 483.0,311.0 483.3,311.0 483.5,311.0 483.7,311.0 484.0,311.0 484.2,311.0 484.5,219.0 484.7,219.0 484.9,219.0 485.2,219.0 485.4,219.0 485.7,219.0 485.9,219.0 486.2,219.0 486.4,219.0 486.6,219.0 486.9,219.0 487.1,219.0 487.4,219.0 487.6,219.0 487.8,219.0 488.1,219.0 488.3,219.0 488.6,219.0 488.8,219.0 489.1,219.0 489.3,219.0 489.5,219.0 489.8,219.0 490.0,219.0 490.3,219.0 490.5,219.0 490.7,219.0 491.0,219.0 491.2,219.0 491.5,219.0 491.7,219.0 492.0,219.0 492.2,219.0 492.4,219.0 492.7,219.0 492.9,219.0 493.2,219.0 493.4,219.0 493.6,219.0 493.9,219.0 494.1,219.0 494.4,219.0 494.6,219.0 494.9,311.0 495.1,311.0 495.3,311.0 495.6,311.0 495.8,311.0 496.1,311.0 496.3,311.0 496.5,311.0 496.8,311.0 497.0,311.0 497.3,311.0 497.5,311.0 497.7,311.0 498.0,311.0 498.2,311.0 498.5,311.0 498.7,311.0 499.0,311.0 499.2,311.0 499.4,311.0 499.7,311.0 499.9,311.0 500.2,311.0 500.4,311.0 500.6,311.0 500.9,311.0 501.1,311.0 501.4,311.0 501.6,311.0 501.9,311.0 502.1,311.0 502.3,311.0 502.6,311.0 502.8,311.0 503.1,311.0 503.3,311.0 503.5,311.0 503.8,311.0 504.0,311.0 504.3,311.0 504.5,311.0 504.8,311.0 505.0,219.0 505.2,219.0 505.5,219.0 505.7,219.0 506.0,219.0 506.2,219.0 506.5,219.0 506.7,219.0 506.9,219.0 507.2,219.0 507.4,219.0 507.7,219.0 507.9,219.0 508.1,219.0 508.4,219.0 508.6,219.0 508.9,219.0 509.1,219.0 509.4,219.0 509.6,219.0 509.8,219.0 510.1,219.0 510.3,219.0 510.6,219.0 510.8,219.0 511.0,219.0 511.3,219.0 511.5,219.0 511.8,219.0 512.0,219.0 512.2,219.0 512.5,219.0 512.7,219.0 513.0,219.0 513.2,219.0 513.5,219.0 513.7,219.0 513.9,219.0 514.2,219.0 514.4,219.0 514.7,219.0 514.9,219.0 515.1,219.0 515.4,311.0 515.6,311.0 515.9,311.0 516.1,311.0 516.4,311.0 516.6,311.0 516.8,311.0 517.1,311.0 517.3,311.0 517.6,311.0 517.8,311.0 518.0,311.0 518.3,311.0 518.5,311.0 518.8,311.0 519.0,311.0 519.3,311.0 519.5,311.0 519.7,311.0 520.0,311.0 520.2,311.0 520.5,311.0 520.7,311.0 520.9,311.0 521.2,311.0 521.4,311.0 521.7,311.0 521.9,311.0 522.2,311.0 522.4,311.0 522.6,311.0 522.9,311.0 523.1,311.0 523.4,311.0 523.6,311.0 523.8,311.0 524.1,311.0 524.3,311.0 524.6,311.0 524.8,311.0 525.1,311.0 525.3,311.0 525.5,311.0 525.8,219.0 526.0,219.0 526.3,219.0 526.5,219.0 526.8,219.0 527.0,219.0 527.2,219.0 527.5,219.0 527.7,219.0 528.0,219.0 528.2,219.0 528.4,219.0 528.7,219.0 528.9,219.0 529.2,219.0 529.4,219.0 529.6,219.0 529.9,219.0 530.1,219.0 530.4,219.0 530.6,219.0 530.9,219.0 531.1,219.0 531.3,219.0 531.6,219.0 531.8,219.0 532.1,219.0 532.3,219.0 532.5,219.0 532.8,219.0 533.0,219.0 533.3,219.0 533.5,219.0 533.8,219.0 534.0,219.0 534.2,219.0 534.5,219.0 534.7,219.0 535.0,219.0 535.2,219.0 535.5,219.0 535.7,219.0 535.9,219.0 536.2,311.0 536.4,311.0 536.7,311.0 536.9,311.0 537.1,311.0 537.4,311.0 537.6,311.0 537.9,311.0 538.1,311.0 538.4,311.0 538.6,311.0 538.8,311.0 539.1,311.0 539.3,311.0 539.6,311.0 539.8,311.0 540.0,311.0 540.3,311.0 540.5,311.0 540.8,311.0 541.0,311.0 541.2,311.0 541.5,311.0 541.7,311.0 542.0,311.0 542.2,311.0 542.5,311.0 542.7,311.0 542.9,311.0 543.2,311.0 543.4,311.0 543.7,311.0 543.9,311.0 544.1,311.0 544.4,311.0 544.6,311.0 544.9,311.0 545.1,311.0 545.4,311.0 545.6,311.0 545.8,311.0 546.1,311.0 546.3,311.0 546.6,219.0 546.8,219.0 547.0,219.0 547.3,219.0 547.5,219.0 547.8,219.0 548.0,219.0 548.3,219.0 548.5,219.0 548.7,219.0 549.0,219.0 549.2,219.0 549.5,219.0 549.7,219.0 550.0,219.0 550.2,219.0 550.4,219.0 550.7,219.0 550.9,219.0 551.2,219.0 551.4,219.0 551.6,219.0 551.9,219.0 552.1,219.0 552.4,219.0 552.6,219.0 552.9,219.0 553.1,219.0 553.3,219.0 553.6,219.0 553.8,219.0 554.1,219.0 554.3,219.0 554.5,219.0 554.8,219.0 555.0,219.0 555.3,219.0 555.5,219.0 555.8,219.0 556.0,219.0 556.2,219.0 556.5,219.0 556.7,219.0 557.0,311.0 557.2,311.0 557.4,311.0 557.7,311.0 557.9,311.0 558.2,311.0 558.4,311.0 558.7,311.0 558.9,311.0 559.1,311.0 559.4,311.0 559.6,311.0 559.9,311.0 560.1,311.0 560.3,311.0 560.6,311.0 560.8,311.0 561.1,311.0 561.3,311.0 561.6,311.0 561.8,311.0 562.0,311.0 562.3,311.0 562.5,311.0 562.8,311.0 563.0,311.0 563.2,311.0 563.5,311.0 563.7,311.0 564.0,311.0 564.2,311.0 564.5,311.0 564.7,311.0 564.9,311.0 565.2,311.0 565.4,311.0 565.7,311.0 565.9,311.0 566.1,311.0 566.4,311.0 566.6,311.0 566.9,311.0 567.1,311.0 567.4,219.0 567.6,219.0 567.8,219.0 568.1,219.0 568.3,219.0 568.6,219.0 568.8,219.0 569.0,219.0 569.3,219.0 569.5,219.0 569.8,219.0 570.0,219.0 570.2,219.0 570.5,219.0 570.7,219.0 571.0,219.0 571.2,219.0 571.5,219.0 571.7,219.0 571.9,219.0 572.2,219.0 572.4,219.0 572.7,219.0 572.9,219.0 573.1,219.0 573.4,219.0 573.6,219.0 573.9,219.0 574.1,219.0 574.4,219.0 574.6,219.0 574.8,219.0 575.1,219.0 575.3,219.0 575.6,219.0 575.8,219.0 576.0,219.0 576.3,219.0 576.5,219.0 576.8,219.0 577.0,219.0 577.3,219.0 577.5,311.0 577.7,311.0 578.0,311.0 578.2,311.0 578.5,311.0 578.7,311.0 579.0,311.0 579.2,311.0 579.4,311.0 579.7,311.0 579.9,311.0 580.2,311.0 580.4,311.0 580.6,311.0 580.9,311.0 581.1,311.0 581.4,311.0 581.6,311.0 581.9,311.0 582.1,311.0 582.3,311.0 582.6,311.0 582.8,311.0 583.1,311.0 583.3,311.0 583.5,311.0 583.8,311.0 584.0,311.0 584.3,311.0 584.5,311.0 584.8,311.0 585.0,311.0 585.2,311.0 585.5,311.0 585.7,311.0 586.0,311.0 586.2,311.0 586.4,311.0 586.7,311.0 586.9,311.0 587.2,311.0 587.4,311.0 587.6,311.0 587.9,219.0 588.1,219.0 588.4,219.0 588.6,219.0 588.9,219.0 589.1,219.0 589.3,219.0 589.6,219.0 589.8,219.0 590.1,219.0 590.3,219.0 590.5,219.0 590.8,219.0 591.0,219.0 591.3,219.0 591.5,219.0 591.8,219.0 592.0,219.0 592.2,219.0 592.5,219.0 592.7,219.0 593.0,219.0 593.2,219.0 593.4,219.0 593.7,219.0 593.9,219.0 594.2,219.0 594.4,219.0 594.7,219.0 594.9,219.0 595.1,219.0 595.4,219.0 595.6,219.0 595.9,219.0 596.1,219.0 596.3,219.0 596.6,219.0 596.8,219.0 597.1,219.0 597.3,219.0 597.6,219.0 597.8,219.0 598.0,219.0 598.3,311.0 598.5,311.0 598.8,311.0 599.0,311.0 599.2,311.0 599.5,311.0 599.7,311.0 600.0,311.0 600.2,311.0 600.5,311.0 600.7,311.0 600.9,311.0 601.2,311.0 601.4,311.0 601.7,311.0 601.9,311.0 602.1,311.0 602.4,311.0 602.6,311.0 602.9,311.0 603.1,311.0 603.4,311.0 603.6,311.0 603.8,311.0 604.1,311.0 604.3,311.0 604.6,311.0 604.8,311.0 605.0,311.0 605.3,311.0 605.5,311.0 605.8,311.0 606.0,311.0 606.3,311.0 606.5,311.0 606.7,311.0 607.0,311.0 607.2,311.0 607.5,311.0 607.7,311.0 608.0,311.0 608.2,311.0 608.4,311.0 608.7,219.0 608.9,219.0 609.2,219.0 609.4,219.0 609.6,219.0 609.9,219.0 610.1,219.0 610.4,219.0 610.6,219.0 610.9,219.0 611.1,219.0 611.3,219.0 611.6,219.0 611.8,219.0 612.1,219.0 612.3,219.0 612.5,219.0 612.8,219.0 613.0,219.0 613.3,219.0 613.5,219.0 613.8,219.0 614.0,219.0 614.2,219.0 614.5,219.0 614.7,219.0 615.0,219.0 615.2,219.0 615.4,219.0 615.7,219.0 615.9,219.0 616.2,219.0 616.4,219.0 616.6,219.0 616.9,219.0 617.1,219.0 617.4,219.0 617.6,219.0 617.9,219.0 618.1,219.0 618.3,219.0 618.6,219.0 618.8,219.0 619.1,311.0 619.3,311.0 619.5,311.0 619.8,311.0 620.0,311.0 620.3,311.0 620.5,311.0 620.8,311.0 621.0,311.0 621.2,311.0 621.5,311.0 621.7,311.0 622.0,311.0 622.2,311.0 622.5,311.0 622.7,311.0 622.9,311.0 623.2,311.0 623.4,311.0 623.7,311.0 623.9,311.0 624.1,311.0 624.4,311.0 624.6,311.0 624.9,311.0 625.1,311.0 625.4,311.0 625.6,311.0 625.8,311.0 626.1,311.0 626.3,311.0 626.6,311.0 626.8,311.0 627.0,311.0 627.3,311.0 627.5,311.0 627.8,311.0 628.0,311.0 628.3,311.0 628.5,311.0 628.7,311.0 629.0,311.0 629.2,311.0 629.5,219.0 629.7,219.0 629.9,219.0 630.2,219.0 630.4,219.0 630.7,219.0 630.9,219.0 631.2,219.0 631.4,219.0 631.6,219.0 631.9,219.0 632.1,219.0 632.4,219.0 632.6,219.0 632.8,219.0 633.1,219.0 633.3,219.0 633.6,219.0 633.8,219.0 634.1,219.0 634.3,219.0 634.5,219.0 634.8,219.0 635.0,219.0 635.3,219.0 635.5,219.0 635.7,219.0 636.0,219.0 636.2,219.0 636.5,219.0 636.7,219.0 637.0,219.0 637.2,219.0 637.4,219.0 637.7,219.0 637.9,219.0 638.2,219.0 638.4,219.0 638.6,219.0 638.9,219.0 639.1,219.0 639.4,219.0 639.6,219.0 639.9,311.0 640.1,311.0 640.3,311.0 640.6,311.0 640.8,311.0 641.1,311.0 641.3,311.0 641.5,311.0 641.8,311.0 642.0,311.0 642.3,311.0 642.5,311.0 642.8,311.0 643.0,311.0 643.2,311.0 643.5,311.0 643.7,311.0 644.0,311.0 644.2,311.0 644.4,311.0 644.7,311.0 644.9,311.0 645.2,311.0 645.4,311.0 645.6,311.0 645.9,311.0 646.1,311.0 646.4,311.0 646.6,311.0 646.9,311.0 647.1,311.0 647.3,311.0 647.6,311.0 647.8,311.0 648.1,311.0 648.3,311.0 648.5,311.0 648.8,311.0 649.0,311.0 649.3,311.0 649.5,311.0 649.8,311.0 650.0,219.0" fill="none" stroke="#1f5fa8" stroke-width="2.2" stroke-linejoin="round" stroke-linecap="round"/>
<text x="64.0" y="319.0" font-size="11" text-anchor="end" font-weight="400" fill="#8a96a3">0</text>
<text x="64.0" y="219.0" font-size="11" text-anchor="end" font-weight="400" fill="#8a96a3">5</text>
<text x="660.0" y="348.0" font-size="11" text-anchor="end" font-weight="400" fill="#8a96a3">thời gian →</text>
</svg>
