<svg xmlns="http://www.w3.org/2000/svg" viewBox="0 0 680 330" width="680" height="330" font-family="Segoe UI, Arial, sans-serif">
<rect width="100%" height="100%" fill="#ffffff"/>
<text x="340.0" y="22.0" font-size="15" text-anchor="middle" font-weight="700" fill="#1a2332">Mạch kim phun 4 xy-lanh (phun nhóm/độc lập)</text>
<polyline points="40.0,60.0 600.0,60.0" fill="none" stroke="#c0392b" stroke-width="2.5" stroke-linejoin="round" stroke-linecap="round"/>
<text x="40.0" y="50.0" font-size="12" text-anchor="start" font-weight="700" fill="#c0392b">+B từ rơle EFI / khóa điện</text>
<circle cx="120.0" cy="60.0" r="3.5" fill="#c0392b" stroke="#c0392b" stroke-width="1"/>
<line x1="120.0" y1="60.0" x2="120.0" y2="90.0" stroke="#c0392b" stroke-width="2" stroke-linecap="round"/>
<path d="M120,90 a 5.0 5.0 0 0 1 0 10.0 a 5.0 5.0 0 0 1 0 10.0 a 5.0 5.0 0 0 1 0 10.0 a 5.0 5.0 0 0 1 0 10.0 a 5.0 5.0 0 0 1 0 10.0 " fill="none" stroke="#1f5fa8" stroke-width="2" stroke-linejoin="round" stroke-linecap="round"/>
<text x="134.0" y="119.0" font-size="12" text-anchor="start" font-weight="400" fill="#1f5fa8">#1</text>
<line x1="120.0" y1="140.0" x2="120.0" y2="200.0" stroke="#1a2332" stroke-width="2" stroke-linecap="round"/>
<circle cx="120.0" cy="200.0" r="4" fill="#fff" stroke="#1a2332" stroke-width="1.5"/>
<text x="128.0" y="204.0" font-size="11" text-anchor="start" font-weight="600" fill="#1a2332">#10</text>
<circle cx="94.0" cy="170.0" r="11" fill="#fff" stroke="#c0392b" stroke-width="2"/>
<text x="94.0" y="174.5" font-size="13" text-anchor="middle" font-weight="700" fill="#c0392b">A</text>
<circle cx="250.0" cy="60.0" r="3.5" fill="#c0392b" stroke="#c0392b" stroke-width="1"/>
<line x1="250.0" y1="60.0" x2="250.0" y2="90.0" stroke="#c0392b" stroke-width="2" stroke-linecap="round"/>
<path d="M250,90 a 5.0 5.0 0 0 1 0 10.0 a 5.0 5.0 0 0 1 0 10.0 a 5.0 5.0 0 0 1 0 10.0 a 5.0 5.0 0 0 1 0 10.0 a 5.0 5.0 0 0 1 0 10.0 " fill="none" stroke="#1f5fa8" stroke-width="2" stroke-linejoin="round" stroke-linecap="round"/>
<text x="264.0" y="119.0" font-size="12" text-anchor="start" font-weight="400" fill="#1f5fa8">#2</text>
<line x1="250.0" y1="140.0" x2="250.0" y2="200.0" stroke="#1a2332" stroke-width="2" stroke-linecap="round"/>
<circle cx="250.0" cy="200.0" r="4" fill="#fff" stroke="#1a2332" stroke-width="1.5"/>
<text x="258.0" y="204.0" font-size="11" text-anchor="start" font-weight="600" fill="#1a2332">#20</text>
<circle cx="224.0" cy="170.0" r="11" fill="#fff" stroke="#c0392b" stroke-width="2"/>
<text x="224.0" y="174.5" font-size="13" text-anchor="middle" font-weight="700" fill="#c0392b">B</text>
<circle cx="380.0" cy="60.0" r="3.5" fill="#c0392b" stroke="#c0392b" stroke-width="1"/>
<line x1="380.0" y1="60.0" x2="380.0" y2="90.0" stroke="#c0392b" stroke-width="2" stroke-linecap="round"/>
<path d="M380,90 a 5.0 5.0 0 0 1 0 10.0 a 5.0 5.0 0 0 1 0 10.0 a 5.0 5.0 0 0 1 0 10.0 a 5.0 5.0 0 0 1 0 10.0 a 5.0 5.0 0 0 1 0 10.0 " fill="none" stroke="#1f5fa8" stroke-width="2" stroke-linejoin="round" stroke-linecap="round"/>
<text x="394.0" y="119.0" font-size="12" text-anchor="start" font-weight="400" fill="#1f5fa8">#3</text>
<line x1="380.0" y1="140.0" x2="380.0" y2="200.0" stroke="#1a2332" stroke-width="2" stroke-linecap="round"/>
<circle cx="380.0" cy="200.0" r="4" fill="#fff" stroke="#1a2332" stroke-width="1.5"/>
<text x="388.0" y="204.0" font-size="11" text-anchor="start" font-weight="600" fill="#1a2332">#30</text>
<circle cx="354.0" cy="170.0" r="11" fill="#fff" stroke="#c0392b" stroke-width="2"/>
<text x="354.0" y="174.5" font-size="13" text-anchor="middle" font-weight="700" fill="#c0392b">C</text>
<circle cx="510.0" cy="60.0" r="3.5" fill="#c0392b" stroke="#c0392b" stroke-width="1"/>
<line x1="510.0" y1="60.0" x2="510.0" y2="90.0" stroke="#c0392b" stroke-width="2" stroke-linecap="round"/>
<path d="M510,90 a 5.0 5.0 0 0 1 0 10.0 a 5.0 5.0 0 0 1 0 10.0 a 5.0 5.0 0 0 1 0 10.0 a 5.0 5.0 0 0 1 0 10.0 a 5.0 5.0 0 0 1 0 10.0 " fill="none" stroke="#1f5fa8" stroke-width="2" stroke-linejoin="round" stroke-linecap="round"/>
<text x="524.0" y="119.0" font-size="12" text-anchor="start" font-weight="400" fill="#1f5fa8">#4</text>
<line x1="510.0" y1="140.0" x2="510.0" y2="200.0" stroke="#1a2332" stroke-width="2" stroke-linecap="round"/>
<circle cx="510.0" cy="200.0" r="4" fill="#fff" stroke="#1a2332" stroke-width="1.5"/>
<text x="518.0" y="204.0" font-size="11" text-anchor="start" font-weight="600" fill="#1a2332">#40</text>
<circle cx="484.0" cy="170.0" r="11" fill="#fff" stroke="#c0392b" stroke-width="2"/>
<text x="484.0" y="174.5" font-size="13" text-anchor="middle" font-weight="700" fill="#c0392b">D</text>
<rect x="80.0" y="215.0" width="540.0" height="95.0" rx="6" fill="#eef4fb" stroke="#1a2332" stroke-width="2"/>
<text x="350.0" y="233.0" font-size="13" text-anchor="middle" font-weight="700" fill="#1a2332">ECM</text>
<circle cx="112.0" cy="262.0" r="22" fill="#fff" stroke="#1a2332" stroke-width="1.5"/>
<line x1="88.0" y1="262.0" x2="104.0" y2="262.0" stroke="#1a2332" stroke-width="2" stroke-linecap="round"/>
<line x1="104.0" y1="249.0" x2="104.0" y2="275.0" stroke="#1a2332" stroke-width="3" stroke-linecap="round"/>
<line x1="104.0" y1="256.0" x2="120.0" y2="244.0" stroke="#1a2332" stroke-width="2" stroke-linecap="round"/>
<line x1="120.0" y1="244.0" x2="120.0" y2="236.0" stroke="#1a2332" stroke-width="2" stroke-linecap="round"/>
<line x1="104.0" y1="268.0" x2="120.0" y2="280.0" stroke="#1a2332" stroke-width="2" stroke-linecap="round"/>
<line x1="120.0" y1="280.0" x2="120.0" y2="288.0" stroke="#1a2332" stroke-width="2" stroke-linecap="round"/>
<polygon points="120.0,280.0 111.0,278.0 116.0,272.0" fill="#1a2332" stroke="#1a2332" stroke-width="1" stroke-linejoin="round"/>
<line x1="120.0" y1="204.0" x2="120.0" y2="236.0" stroke="#1a2332" stroke-width="2" stroke-linecap="round"/>
<line x1="120.0" y1="288.0" x2="120.0" y2="300.0" stroke="#1a2332" stroke-width="2" stroke-linecap="round"/>
<circle cx="242.0" cy="262.0" r="22" fill="#fff" stroke="#1a2332" stroke-width="1.5"/>
<line x1="218.0" y1="262.0" x2="234.0" y2="262.0" stroke="#1a2332" stroke-width="2" stroke-linecap="round"/>
<line x1="234.0" y1="249.0" x2="234.0" y2="275.0" stroke="#1a2332" stroke-width="3" stroke-linecap="round"/>
<line x1="234.0" y1="256.0" x2="250.0" y2="244.0" stroke="#1a2332" stroke-width="2" stroke-linecap="round"/>
<line x1="250.0" y1="244.0" x2="250.0" y2="236.0" stroke="#1a2332" stroke-width="2" stroke-linecap="round"/>
<line x1="234.0" y1="268.0" x2="250.0" y2="280.0" stroke="#1a2332" stroke-width="2" stroke-linecap="round"/>
<line x1="250.0" y1="280.0" x2="250.0" y2="288.0" stroke="#1a2332" stroke-width="2" stroke-linecap="round"/>
<polygon points="250.0,280.0 241.0,278.0 246.0,272.0" fill="#1a2332" stroke="#1a2332" stroke-width="1" stroke-linejoin="round"/>
<line x1="250.0" y1="204.0" x2="250.0" y2="236.0" stroke="#1a2332" stroke-width="2" stroke-linecap="round"/>
<line x1="250.0" y1="288.0" x2="250.0" y2="300.0" stroke="#1a2332" stroke-width="2" stroke-linecap="round"/>
<circle cx="372.0" cy="262.0" r="22" fill="#fff" stroke="#1a2332" stroke-width="1.5"/>
<line x1="348.0" y1="262.0" x2="364.0" y2="262.0" stroke="#1a2332" stroke-width="2" stroke-linecap="round"/>
<line x1="364.0" y1="249.0" x2="364.0" y2="275.0" stroke="#1a2332" stroke-width="3" stroke-linecap="round"/>
<line x1="364.0" y1="256.0" x2="380.0" y2="244.0" stroke="#1a2332" stroke-width="2" stroke-linecap="round"/>
<line x1="380.0" y1="244.0" x2="380.0" y2="236.0" stroke="#1a2332" stroke-width="2" stroke-linecap="round"/>
<line x1="364.0" y1="268.0" x2="380.0" y2="280.0" stroke="#1a2332" stroke-width="2" stroke-linecap="round"/>
<line x1="380.0" y1="280.0" x2="380.0" y2="288.0" stroke="#1a2332" stroke-width="2" stroke-linecap="round"/>
<polygon points="380.0,280.0 371.0,278.0 376.0,272.0" fill="#1a2332" stroke="#1a2332" stroke-width="1" stroke-linejoin="round"/>
<line x1="380.0" y1="204.0" x2="380.0" y2="236.0" stroke="#1a2332" stroke-width="2" stroke-linecap="round"/>
<line x1="380.0" y1="288.0" x2="380.0" y2="300.0" stroke="#1a2332" stroke-width="2" stroke-linecap="round"/>
<circle cx="502.0" cy="262.0" r="22" fill="#fff" stroke="#1a2332" stroke-width="1.5"/>
<line x1="478.0" y1="262.0" x2="494.0" y2="262.0" stroke="#1a2332" stroke-width="2" stroke-linecap="round"/>
<line x1="494.0" y1="249.0" x2="494.0" y2="275.0" stroke="#1a2332" stroke-width="3" stroke-linecap="round"/>
<line x1="494.0" y1="256.0" x2="510.0" y2="244.0" stroke="#1a2332" stroke-width="2" stroke-linecap="round"/>
<line x1="510.0" y1="244.0" x2="510.0" y2="236.0" stroke="#1a2332" stroke-width="2" stroke-linecap="round"/>
<line x1="494.0" y1="268.0" x2="510.0" y2="280.0" stroke="#1a2332" stroke-width="2" stroke-linecap="round"/>
<line x1="510.0" y1="280.0" x2="510.0" y2="288.0" stroke="#1a2332" stroke-width="2" stroke-linecap="round"/>
<polygon points="510.0,280.0 501.0,278.0 506.0,272.0" fill="#1a2332" stroke="#1a2332" stroke-width="1" stroke-linejoin="round"/>
<line x1="510.0" y1="204.0" x2="510.0" y2="236.0" stroke="#1a2332" stroke-width="2" stroke-linecap="round"/>
<line x1="510.0" y1="288.0" x2="510.0" y2="300.0" stroke="#1a2332" stroke-width="2" stroke-linecap="round"/>
</svg>
