<svg xmlns="http://www.w3.org/2000/svg" viewBox="0 0 640 280" width="640" height="280" font-family="Segoe UI, Arial, sans-serif">
<rect width="100%" height="100%" fill="#ffffff"/>
<text x="320.0" y="22.0" font-size="15" text-anchor="middle" font-weight="700" fill="#1a2332">Tín hiệu cảm biến tiếng gõ (KNK) – 3 chu kỳ cháy liên tiếp</text>
<rect x="60.0" y="50.0" width="560.0" height="180.0" rx="0" fill="#fbfcfd" stroke="#8a96a3" stroke-width="1"/>
<line x1="97.3" y1="50.0" x2="97.3" y2="230.0" stroke="#dfe5ec" stroke-width="1" stroke-linecap="round"/>
<line x1="134.7" y1="50.0" x2="134.7" y2="230.0" stroke="#dfe5ec" stroke-width="1" stroke-linecap="round"/>
<line x1="172.0" y1="50.0" x2="172.0" y2="230.0" stroke="#dfe5ec" stroke-width="1" stroke-linecap="round"/>
<line x1="209.3" y1="50.0" x2="209.3" y2="230.0" stroke="#dfe5ec" stroke-width="1" stroke-linecap="round"/>
<line x1="246.7" y1="50.0" x2="246.7" y2="230.0" stroke="#dfe5ec" stroke-width="1" stroke-linecap="round"/>
<line x1="284.0" y1="50.0" x2="284.0" y2="230.0" stroke="#dfe5ec" stroke-width="1" stroke-linecap="round"/>
<line x1="321.3" y1="50.0" x2="321.3" y2="230.0" stroke="#dfe5ec" stroke-width="1" stroke-linecap="round"/>
<line x1="358.7" y1="50.0" x2="358.7" y2="230.0" stroke="#dfe5ec" stroke-width="1" stroke-linecap="round"/>
<line x1="396.0" y1="50.0" x2="396.0" y2="230.0" stroke="#dfe5ec" stroke-width="1" stroke-linecap="round"/>
<line x1="433.3" y1="50.0" x2="433.3" y2="230.0" stroke="#dfe5ec" stroke-width="1" stroke-linecap="round"/>
<line x1="470.7" y1="50.0" x2="470.7" y2="230.0" stroke="#dfe5ec" stroke-width="1" stroke-linecap="round"/>
<line x1="508.0" y1="50.0" x2="508.0" y2="230.0" stroke="#dfe5ec" stroke-width="1" stroke-linecap="round"/>
<line x1="545.3" y1="50.0" x2="545.3" y2="230.0" stroke="#dfe5ec" stroke-width="1" stroke-linecap="round"/>
<line x1="582.7" y1="50.0" x2="582.7" y2="230.0" stroke="#dfe5ec" stroke-width="1" stroke-linecap="round"/>
<line x1="60.0" y1="95.0" x2="620.0" y2="95.0" stroke="#dfe5ec" stroke-width="1" stroke-linecap="round"/>
<line x1="60.0" y1="140.0" x2="620.0" y2="140.0" stroke="#dfe5ec" stroke-width="1" stroke-linecap="round"/>
<line x1="60.0" y1="185.0" x2="620.0" y2="185.0" stroke="#dfe5ec" stroke-width="1" stroke-linecap="round"/>
<polyline points="60.0,142.8 60.2,139.5 60.4,141.4 60.6,138.9 60.7,138.6 60.9,144.7 61.1,145.3 61.3,136.4 61.5,142.6 61.7,142.9 61.9,134.6 62.1,140.3 62.2,136.4 62.4,140.3 62.6,138.5 62.8,143.8 63.0,138.5 63.2,136.0 63.4,139.7 63.5,137.4 63.7,138.1 63.9,144.7 64.1,137.2 64.3,139.0 64.5,142.1 64.7,145.1 64.9,136.1 65.0,140.3 65.2,137.6 65.4,137.6 65.6,137.7 65.8,135.5 66.0,141.1 66.2,136.8 66.3,140.6 66.5,135.3 66.7,135.9 66.9,144.3 67.1,143.9 67.3,143.1 67.5,135.0 67.7,140.7 67.8,138.6 68.0,142.1 68.2,139.9 68.4,141.2 68.6,141.6 68.8,139.1 69.0,139.1 69.1,135.6 69.3,138.0 69.5,135.4 69.7,136.2 69.9,134.7 70.1,138.2 70.3,143.6 70.5,136.1 70.6,136.1 70.8,135.0 71.0,139.3 71.2,137.7 71.4,143.1 71.6,136.4 71.8,139.2 71.9,142.3 72.1,144.7 72.3,136.2 72.5,134.7 72.7,144.4 72.9,136.8 73.1,141.0 73.3,143.8 73.4,142.2 73.6,137.1 73.8,136.0 74.0,144.9 74.2,138.8 74.4,144.9 74.6,137.6 74.7,141.8 74.9,135.9 75.1,134.8 75.3,139.9 75.5,134.6 75.7,142.1 75.9,144.6 76.1,138.9 76.2,145.1 76.4,143.3 76.6,141.0 76.8,138.8 77.0,143.7 77.2,144.9 77.4,136.0 77.5,142.0 77.7,135.0 77.9,135.7 78.1,141.3 78.3,140.4 78.5,139.8 78.7,138.4 78.9,139.0 79.0,139.4 79.2,138.7 79.4,135.2 79.6,139.9 79.8,140.7 80.0,137.6 80.2,142.8 80.3,142.1 80.5,134.8 80.7,139.8 80.9,139.5 81.1,139.5 81.3,145.3 81.5,140.9 81.7,139.1 81.8,138.7 82.0,138.6 82.2,144.8 82.4,138.6 82.6,140.4 82.8,138.1 83.0,141.6 83.1,137.8 83.3,137.4 83.5,145.2 83.7,144.7 83.9,138.1 84.1,135.0 84.3,142.7 84.5,140.5 84.6,139.0 84.8,141.9 85.0,141.5 85.2,142.0 85.4,141.4 85.6,139.0 85.8,142.2 85.9,141.3 86.1,137.1 86.3,145.1 86.5,139.3 86.7,137.5 86.9,142.1 87.1,143.0 87.3,136.7 87.4,142.8 87.6,143.4 87.8,140.7 88.0,137.9 88.2,144.3 88.4,141.9 88.6,141.8 88.7,136.4 88.9,140.7 89.1,136.2 89.3,143.6 89.5,141.8 89.7,138.4 89.9,135.8 90.1,140.5 90.2,143.0 90.4,144.1 90.6,139.7 90.8,143.3 91.0,136.7 91.2,136.3 91.4,143.4 91.5,142.4 91.7,136.7 91.9,138.5 92.1,136.7 92.3,141.7 92.5,144.0 92.7,142.2 92.9,136.8 93.0,142.5 93.2,141.7 93.4,140.9 93.6,140.9 93.8,141.0 94.0,135.5 94.2,143.7 94.3,145.3 94.5,135.2 94.7,135.9 94.9,134.7 95.1,140.7 95.3,135.1 95.5,135.4 95.7,143.0 95.8,137.3 96.0,136.4 96.2,138.2 96.4,139.8 96.6,142.3 96.8,141.7 97.0,142.9 97.1,144.7 97.3,139.0 97.5,139.0 97.7,136.6 97.9,136.6 98.1,135.6 98.3,135.6 98.5,135.4 98.6,135.4 98.8,135.7 99.0,139.2 99.2,145.3 99.4,137.4 99.6,143.5 99.8,142.2 99.9,138.2 100.1,139.7 100.3,140.9 100.5,135.3 100.7,138.8 100.9,141.7 101.1,142.7 101.3,136.1 101.4,140.2 101.6,137.0 101.8,141.6 102.0,143.3 102.2,143.3 102.4,136.6 102.6,136.6 102.7,136.8 102.9,136.8 103.1,136.7 103.3,136.7 103.5,145.3 103.7,138.6 103.9,136.1 104.1,144.9 104.2,142.5 104.4,142.5 104.6,139.7 104.8,140.8 105.0,140.3 105.2,137.0 105.4,145.4 105.5,144.8 105.7,144.0 105.9,144.1 106.1,144.7 106.3,134.9 106.5,136.2 106.7,144.5 106.9,144.5 107.0,142.0 107.2,142.0 107.4,141.6 107.6,141.6 107.8,139.1 108.0,141.5 108.2,143.3 108.3,141.8 108.5,144.1 108.7,139.4 108.9,137.7 109.1,141.3 109.3,144.5 109.5,143.5 109.7,141.4 109.8,138.9 110.0,136.9 110.2,141.3 110.4,136.7 110.6,138.7 110.8,140.7 111.0,141.4 111.1,140.0 111.3,137.8 111.5,140.9 111.7,137.9 111.9,140.4 112.1,142.8 112.3,139.6 112.5,137.9 112.6,144.6 112.8,140.8 113.0,140.8 113.2,135.9 113.4,135.3 113.6,141.4 113.8,135.7 113.9,136.9 114.1,142.6 114.3,140.4 114.5,144.1 114.7,136.6 114.9,138.2 115.1,135.8 115.3,136.8 115.4,138.2 115.6,137.5 115.8,139.3 116.0,144.3 116.2,139.1 116.4,145.3 116.6,143.9 116.7,137.0 116.9,144.9 117.1,144.4 117.3,144.3 117.5,135.9 117.7,143.5 117.9,145.1 118.1,136.3 118.2,144.1 118.4,136.3 118.6,138.1 118.8,136.4 119.0,135.1 119.2,139.1 119.4,136.8 119.5,145.0 119.7,137.1 119.9,136.6 120.1,131.5 120.3,135.8 120.5,127.3 120.7,124.8 120.9,134.6 121.0,133.0 121.2,132.4 121.4,132.2 121.6,141.4 121.8,145.0 122.0,147.0 122.2,145.3 122.3,145.5 122.5,150.3 122.7,150.6 122.9,149.5 123.1,148.6 123.3,145.8 123.5,146.9 123.7,139.9 123.8,132.2 124.0,136.1 124.2,130.7 124.4,135.9 124.6,129.8 124.8,129.4 125.0,131.3 125.1,134.6 125.3,137.0 125.5,137.5 125.7,137.0 125.9,147.2 126.1,149.5 126.3,143.7 126.5,142.5 126.6,146.9 126.8,147.0 127.0,142.9 127.2,147.1 127.4,144.3 127.6,143.0 127.8,136.9 127.9,138.2 128.1,137.7 128.3,132.0 128.5,128.9 128.7,136.2 128.9,132.6 129.1,137.0 129.3,133.8 129.4,138.5 129.6,143.6 129.8,145.8 130.0,149.2 130.2,145.2 130.4,146.7 130.6,148.9 130.7,146.4 130.9,145.9 131.1,139.8 131.3,145.1 131.5,134.4 131.7,138.5 131.9,135.9 132.1,136.3 132.2,131.8 132.4,131.7 132.6,134.8 132.8,136.3 133.0,134.7 133.2,134.4 133.4,140.7 133.5,138.4 133.7,137.2 133.9,143.5 134.1,146.8 134.3,147.1 134.5,141.8 134.7,141.9 134.9,138.1 135.0,137.1 135.2,143.7 135.4,143.1 135.6,141.2 135.8,140.2 136.0,134.7 136.2,132.6 136.3,132.0 136.5,132.2 136.7,133.1 136.9,139.8 137.1,139.5 137.3,140.6 137.5,145.2 137.7,146.1 137.8,138.9 138.0,145.2 138.2,144.8 138.4,142.3 138.6,141.0 138.8,147.6 139.0,143.3 139.1,141.3 139.3,139.9 139.5,142.0 139.7,141.3 139.9,132.7 140.1,138.4 140.3,136.7 140.5,136.8 140.6,140.2 140.8,136.5 141.0,143.2 141.2,144.0 141.4,136.2 141.6,145.7 141.8,137.2 141.9,137.5 142.1,139.5 142.3,139.7 142.5,144.4 142.7,139.8 142.9,139.5 143.1,137.2 143.3,142.3 143.4,136.4 143.6,133.6 143.8,136.2 144.0,137.5 144.2,142.0 144.4,142.1 144.6,139.9 144.7,136.4 144.9,137.4 145.1,138.0 145.3,144.0 145.5,139.5 145.7,140.1 145.9,140.4 146.1,137.7 146.2,140.2 146.4,145.7 146.6,145.4 146.8,144.7 147.0,142.1 147.2,137.4 147.4,138.2 147.5,138.3 147.7,136.9 147.9,138.8 148.1,140.3 148.3,141.9 148.5,143.3 148.7,136.7 148.9,136.7 149.0,137.2 149.2,137.8 149.4,142.4 149.6,143.7 149.8,143.9 150.0,137.5 150.2,146.4 150.3,141.2 150.5,140.9 150.7,137.7 150.9,141.8 151.1,141.6 151.3,141.2 151.5,138.7 151.7,135.9 151.8,140.3 152.0,135.0 152.2,143.0 152.4,141.5 152.6,143.6 152.8,143.8 153.0,137.0 153.1,137.9 153.3,144.1 153.5,144.3 153.7,144.4 153.9,138.5 154.1,137.7 154.3,138.3 154.5,138.1 154.6,144.3 154.8,141.3 155.0,143.1 155.2,142.9 155.4,138.6 155.6,142.3 155.8,141.7 155.9,136.0 156.1,144.2 156.3,136.0 156.5,135.2 156.7,134.9 156.9,141.3 157.1,139.7 157.3,139.6 157.4,139.3 157.6,135.7 157.8,138.9 158.0,143.0 158.2,136.8 158.4,140.7 158.6,139.3 158.7,137.7 158.9,145.2 159.1,136.7 159.3,137.7 159.5,139.4 159.7,139.0 159.9,139.7 160.1,142.6 160.2,139.1 160.4,144.6 160.6,139.8 160.8,138.4 161.0,140.8 161.2,139.7 161.4,135.6 161.5,136.4 161.7,144.6 161.9,137.5 162.1,139.2 162.3,145.3 162.5,141.8 162.7,143.0 162.9,144.4 163.0,139.3 163.2,134.9 163.4,141.4 163.6,135.4 163.8,137.3 164.0,143.4 164.2,135.7 164.3,138.6 164.5,135.2 164.7,137.7 164.9,137.6 165.1,142.0 165.3,137.1 165.5,135.8 165.7,136.6 165.8,141.2 166.0,137.7 166.2,140.5 166.4,144.4 166.6,145.0 166.8,144.5 167.0,143.0 167.1,143.3 167.3,139.6 167.5,137.4 167.7,139.1 167.9,140.4 168.1,138.1 168.3,141.9 168.5,140.3 168.6,137.2 168.8,141.2 169.0,143.7 169.2,136.0 169.4,138.0 169.6,141.8 169.8,141.8 169.9,140.0 170.1,139.2 170.3,143.1 170.5,145.4 170.7,143.1 170.9,136.8 171.1,143.6 171.3,140.1 171.4,142.9 171.6,142.8 171.8,143.2 172.0,140.8 172.2,143.4 172.4,145.0 172.6,144.2 172.7,143.7 172.9,140.3 173.1,145.0 173.3,145.5 173.5,140.9 173.7,141.3 173.9,138.0 174.1,145.0 174.2,141.1 174.4,141.1 174.6,145.0 174.8,134.8 175.0,142.8 175.2,144.1 175.4,140.0 175.5,143.4 175.7,138.4 175.9,141.5 176.1,143.9 176.3,144.8 176.5,137.6 176.7,142.5 176.9,137.0 177.0,140.6 177.2,135.6 177.4,142.4 177.6,142.9 177.8,142.7 178.0,136.7 178.2,138.7 178.3,141.7 178.5,144.3 178.7,137.9 178.9,134.8 179.1,138.8 179.3,145.2 179.5,144.9 179.7,144.2 179.8,143.4 180.0,144.9 180.2,144.8 180.4,138.4 180.6,135.8 180.8,143.4 181.0,135.0 181.1,140.4 181.3,136.9 181.5,135.7 181.7,135.4 181.9,145.1 182.1,142.2 182.3,138.9 182.5,135.1 182.6,144.4 182.8,142.1 183.0,136.1 183.2,144.0 183.4,141.0 183.6,141.7 183.8,137.9 183.9,135.3 184.1,143.5 184.3,137.4 184.5,137.5 184.7,136.5 184.9,139.5 185.1,135.6 185.3,141.6 185.4,141.1 185.6,143.0 185.8,137.1 186.0,140.3 186.2,142.5 186.4,143.5 186.6,137.5 186.7,138.8 186.9,137.6 187.1,141.2 187.3,140.1 187.5,143.7 187.7,137.7 187.9,145.2 188.1,140.4 188.2,137.2 188.4,138.1 188.6,144.4 188.8,142.8 189.0,136.3 189.2,138.5 189.4,135.9 189.5,136.0 189.7,140.5 189.9,135.7 190.1,137.5 190.3,141.8 190.5,141.4 190.7,144.6 190.9,141.1 191.0,135.1 191.2,144.3 191.4,139.3 191.6,144.2 191.8,144.5 192.0,138.4 192.2,142.8 192.3,144.9 192.5,143.8 192.7,138.4 192.9,139.1 193.1,145.3 193.3,142.9 193.5,135.0 193.7,143.0 193.8,139.3 194.0,140.9 194.2,137.0 194.4,138.9 194.6,136.9 194.8,139.6 195.0,143.4 195.1,143.5 195.3,144.5 195.5,136.5 195.7,144.2 195.9,145.1 196.1,135.0 196.3,143.2 196.5,135.8 196.6,144.5 196.8,140.4 197.0,143.0 197.2,136.4 197.4,138.8 197.6,138.5 197.8,137.2 197.9,136.0 198.1,141.7 198.3,138.9 198.5,140.6 198.7,144.2 198.9,136.4 199.1,139.0 199.3,136.6 199.4,143.2 199.6,139.6 199.8,140.4 200.0,137.5 200.2,144.6 200.4,141.7 200.6,140.2 200.7,144.6 200.9,139.4 201.1,137.5 201.3,140.8 201.5,138.4 201.7,138.9 201.9,143.1 202.1,141.6 202.2,134.6 202.4,141.8 202.6,140.7 202.8,144.5 203.0,143.0 203.2,143.6 203.4,135.3 203.5,137.6 203.7,136.0 203.9,134.7 204.1,138.8 204.3,135.3 204.5,139.6 204.7,140.9 204.9,135.2 205.0,135.6 205.2,135.1 205.4,140.2 205.6,137.0 205.8,141.0 206.0,134.6 206.2,135.5 206.3,142.2 206.5,135.3 206.7,143.4 206.9,144.4 207.1,137.6 207.3,142.2 207.5,139.8 207.7,138.5 207.8,145.0 208.0,137.4 208.2,142.4 208.4,140.7 208.6,141.7 208.8,137.4 209.0,137.3 209.1,142.3 209.3,144.3 209.5,142.2 209.7,141.0 209.9,141.0 210.1,144.6 210.3,137.2 210.5,137.8 210.6,134.9 210.8,134.8 211.0,135.9 211.2,141.4 211.4,143.7 211.6,143.7 211.8,140.4 211.9,139.7 212.1,139.5 212.3,141.5 212.5,136.2 212.7,142.3 212.9,140.4 213.1,140.4 213.3,136.7 213.4,142.2 213.6,142.8 213.8,136.7 214.0,145.3 214.2,144.0 214.4,139.7 214.6,139.7 214.7,139.6 214.9,144.9 215.1,143.2 215.3,137.1 215.5,140.4 215.7,134.8 215.9,136.9 216.1,134.8 216.2,134.8 216.4,143.4 216.6,145.3 216.8,140.7 217.0,141.7 217.2,144.8 217.4,139.5 217.5,144.4 217.7,144.4 217.9,142.7 218.1,136.7 218.3,140.9 218.5,142.6 218.7,144.9 218.9,140.8 219.0,138.6 219.2,138.6 219.4,138.1 219.6,136.7 219.8,142.7 220.0,143.9 220.2,137.2 220.3,136.9 220.5,139.9 220.7,136.4 220.9,136.4 221.1,142.4 221.3,143.6 221.5,145.2 221.7,138.5 221.8,135.7 222.0,135.6 222.2,140.4 222.4,140.4 222.6,135.4 222.8,136.6 223.0,138.9 223.1,140.9 223.3,139.8 223.5,143.6 223.7,143.4 223.9,143.4 224.1,138.0 224.3,139.5 224.5,141.0 224.6,141.6 224.8,140.5 225.0,136.7 225.2,140.5 225.4,135.0 225.6,135.0 225.8,142.0 225.9,139.8 226.1,141.0 226.3,136.2 226.5,136.5 226.7,135.3 226.9,138.8 227.1,138.8 227.3,139.2 227.4,139.5 227.6,140.1 227.8,142.4 228.0,137.7 228.2,135.6 228.4,144.3 228.6,144.3 228.7,138.2 228.9,139.8 229.1,135.7 229.3,135.0 229.5,138.4 229.7,143.3 229.9,135.5 230.1,143.4 230.2,143.4 230.4,136.5 230.6,142.0 230.8,142.5 231.0,135.1 231.2,135.2 231.4,142.0 231.5,141.2 231.7,141.2 231.9,144.0 232.1,142.7 232.3,134.8 232.5,144.5 232.7,142.9 232.9,143.2 233.0,144.5 233.2,144.5 233.4,139.7 233.6,136.3 233.8,138.6 234.0,136.6 234.2,145.3 234.3,142.4 234.5,135.0 234.7,144.7 234.9,144.7 235.1,140.2 235.3,142.5 235.5,139.5 235.7,144.9 235.8,142.9 236.0,135.1 236.2,143.8 236.4,143.8 236.6,143.5 236.8,134.7 237.0,138.1 237.1,138.4 237.3,143.9 237.5,144.8 237.7,137.2 237.9,137.2 238.1,143.5 238.3,136.5 238.5,136.0 238.6,144.9 238.8,135.0 239.0,139.6 239.2,141.3 239.4,144.2 239.6,144.2 239.8,134.7 239.9,142.4 240.1,144.0 240.3,143.8 240.5,144.0 240.7,141.6 240.9,135.5 241.1,135.5 241.3,143.3 241.4,135.3 241.6,134.6 241.8,134.8 242.0,142.7 242.2,141.6 242.4,135.1 242.6,135.1 242.7,140.2 242.9,142.0 243.1,145.2 243.3,141.7 243.5,137.3 243.7,137.0 243.9,139.3 244.1,140.4 244.2,140.4 244.4,140.6 244.6,139.6 244.8,136.4 245.0,143.2 245.2,139.0 245.4,135.3 245.5,136.2 245.7,136.2 245.9,135.0 246.1,136.3 246.3,143.6 246.5,142.5 246.7,143.2 246.9,144.8 247.0,134.8 247.2,134.8 247.4,141.0 247.6,144.2 247.8,145.2 248.0,136.0 248.2,136.8 248.3,134.7 248.5,138.0 248.7,139.7 248.9,139.7 249.1,144.4 249.3,139.6 249.5,140.6 249.7,143.8 249.8,138.9 250.0,141.9 250.2,139.9 250.4,139.9 250.6,142.0 250.8,141.5 251.0,138.9 251.1,134.8 251.3,135.3 251.5,136.1 251.7,136.4 251.9,142.3 252.1,134.9 252.3,142.5 252.5,144.1 252.6,140.0 252.8,137.5 253.0,141.7 253.2,138.4 253.4,142.4 253.6,135.0 253.8,140.5 253.9,140.2 254.1,139.7 254.3,136.0 254.5,134.7 254.7,139.7 254.9,140.6 255.1,138.7 255.3,144.7 255.4,140.8 255.6,136.2 255.8,137.0 256.0,144.8 256.2,136.2 256.4,141.3 256.6,134.8 256.7,141.4 256.9,143.1 257.1,139.5 257.3,135.9 257.5,140.7 257.7,136.0 257.9,137.7 258.1,141.5 258.2,142.2 258.4,139.9 258.6,141.1 258.8,141.4 259.0,138.4 259.2,135.9 259.4,139.1 259.5,143.8 259.7,143.0 259.9,141.4 260.1,138.8 260.3,143.9 260.5,144.5 260.7,141.9 260.9,142.3 261.0,145.1 261.2,139.6 261.4,135.4 261.6,139.6 261.8,137.4 262.0,136.5 262.2,136.4 262.3,135.5 262.5,140.6 262.7,138.0 262.9,144.1 263.1,135.9 263.3,141.3 263.5,140.3 263.7,135.8 263.8,142.3 264.0,143.3 264.2,136.5 264.4,138.9 264.6,144.5 264.8,145.1 265.0,141.6 265.1,145.3 265.3,136.4 265.5,143.4 265.7,142.4 265.9,141.2 266.1,139.9 266.3,140.7 266.5,138.6 266.6,138.3 266.8,140.7 267.0,144.4 267.2,134.8 267.4,137.9 267.6,144.5 267.8,140.6 267.9,137.3 268.1,134.7 268.3,144.7 268.5,145.3 268.7,140.2 268.9,140.8 269.1,135.7 269.3,136.5 269.4,141.8 269.6,140.9 269.8,139.1 270.0,135.9 270.2,143.2 270.4,141.2 270.6,144.4 270.7,138.5 270.9,145.1 271.1,135.3 271.3,139.7 271.5,139.2 271.7,144.5 271.9,142.9 272.1,140.3 272.2,136.1 272.4,139.6 272.6,142.3 272.8,134.8 273.0,138.3 273.2,139.7 273.4,143.2 273.5,142.2 273.7,135.7 273.9,144.0 274.1,139.7 274.3,138.7 274.5,141.6 274.7,137.1 274.9,135.6 275.0,136.1 275.2,137.4 275.4,143.2 275.6,144.8 275.8,140.7 276.0,142.0 276.2,143.3 276.3,136.0 276.5,143.1 276.7,136.5 276.9,135.3 277.1,144.1 277.3,135.5 277.5,141.1 277.7,143.1 277.8,143.4 278.0,145.0 278.2,140.0 278.4,141.2 278.6,136.2 278.8,136.4 279.0,144.8 279.1,141.1 279.3,141.2 279.5,143.5 279.7,142.7 279.9,142.6 280.1,137.9 280.3,141.7 280.5,144.2 280.6,143.0 280.8,140.6 281.0,139.3 281.2,142.7 281.4,137.8 281.6,143.1 281.8,138.2 281.9,138.8 282.1,143.5 282.3,137.3 282.5,141.1 282.7,139.6 282.9,138.9 283.1,138.6 283.3,140.6 283.4,144.8 283.6,136.9 283.8,136.1 284.0,140.1 284.2,139.1 284.4,142.5 284.6,135.7 284.7,138.0 284.9,143.0 285.1,136.6 285.3,134.7 285.5,141.7 285.7,134.6 285.9,140.2 286.1,143.5 286.2,137.7 286.4,141.7 286.6,137.5 286.8,139.1 287.0,144.2 287.2,139.7 287.4,136.2 287.5,140.2 287.7,139.6 287.9,136.1 288.1,140.6 288.3,140.1 288.5,139.1 288.7,136.5 288.9,143.2 289.0,144.4 289.2,137.2 289.4,139.4 289.6,142.1 289.8,135.8 290.0,135.8 290.2,139.6 290.3,134.7 290.5,136.4 290.7,137.3 290.9,142.3 291.1,145.3 291.3,138.1 291.5,137.5 291.7,141.6 291.8,140.2 292.0,139.3 292.2,142.7 292.4,137.9 292.6,139.3 292.8,141.2 293.0,144.2 293.1,139.4 293.3,141.9 293.5,137.6 293.7,143.5 293.9,141.1 294.1,143.3 294.3,141.0 294.5,139.2 294.6,144.2 294.8,144.8 295.0,140.2 295.2,143.2 295.4,139.9 295.6,143.6 295.8,144.3 295.9,139.6 296.1,135.4 296.3,136.0 296.5,139.8 296.7,141.1 296.9,144.7 297.1,142.4 297.3,142.0 297.4,135.2 297.6,144.1 297.8,135.2 298.0,140.3 298.2,140.7 298.4,142.6 298.6,135.0 298.7,143.4 298.9,139.2 299.1,139.9 299.3,143.2 299.5,143.0 299.7,134.8 299.9,136.9 300.1,137.5 300.2,135.6 300.4,144.3 300.6,137.8 300.8,137.3 301.0,143.0 301.2,140.5 301.4,134.9 301.5,141.9 301.7,137.2 301.9,143.6 302.1,138.2 302.3,142.5 302.5,139.9 302.7,141.4 302.9,136.0 303.0,137.4 303.2,140.0 303.4,138.0 303.6,140.8 303.8,136.7 304.0,142.6 304.2,139.5 304.3,139.1 304.5,141.2 304.7,144.9 304.9,143.6 305.1,138.5 305.3,143.1 305.5,137.2 305.7,139.9 305.8,135.1 306.0,136.2 306.2,137.5 306.4,141.4 306.6,123.9 306.8,99.7 307.0,83.0 307.1,71.6 307.3,75.7 307.5,78.6 307.7,77.9 307.9,93.4 308.1,112.7 308.3,128.5 308.5,153.7 308.6,166.9 308.8,180.3 309.0,191.6 309.2,202.0 309.4,202.6 309.6,192.5 309.8,180.3 309.9,175.2 310.1,161.0 310.3,143.6 310.5,119.9 310.7,109.9 310.9,98.1 311.1,85.3 311.3,86.9 311.4,92.7 311.6,94.5 311.8,112.2 312.0,122.0 312.2,131.8 312.4,152.0 312.6,166.9 312.7,172.7 312.9,182.8 313.1,179.9 313.3,189.4 313.5,177.9 313.7,174.9 313.9,160.1 314.1,151.9 314.2,136.8 314.4,128.1 314.6,118.4 314.8,107.5 315.0,98.5 315.2,101.7 315.4,104.8 315.5,107.9 315.7,119.3 315.9,126.9 316.1,135.2 316.3,146.6 316.5,156.3 316.7,168.0 316.9,176.9 317.0,179.9 317.2,176.4 317.4,174.7 317.6,164.8 317.8,160.1 318.0,145.4 318.2,137.3 318.3,127.1 318.5,118.1 318.7,114.1 318.9,111.2 319.1,111.3 319.3,115.5 319.5,111.7 319.7,121.1 319.8,133.2 320.0,132.8 320.2,145.0 320.4,152.4 320.6,160.8 320.8,168.7 321.0,161.4 321.1,170.1 321.3,165.4 321.5,154.0 321.7,157.2 321.9,145.9 322.1,138.5 322.3,133.8 322.5,120.2 322.6,120.9 322.8,122.4 323.0,116.6 323.2,123.0 323.4,118.6 323.6,121.8 323.8,127.4 323.9,143.2 324.1,143.0 324.3,153.0 324.5,156.0 324.7,161.2 324.9,162.8 325.1,164.3 325.3,156.9 325.4,159.1 325.6,144.8 325.8,149.1 326.0,133.4 326.2,136.2 326.4,132.6 326.6,121.8 326.7,122.0 326.9,118.9 327.1,122.8 327.3,124.1 327.5,133.8 327.7,132.1 327.9,138.9 328.1,139.1 328.2,153.9 328.4,157.0 328.6,152.9 328.8,151.3 329.0,156.5 329.2,151.7 329.4,150.4 329.5,148.5 329.7,143.4 329.9,137.4 330.1,139.3 330.3,132.7 330.5,125.3 330.7,128.9 330.9,126.3 331.0,129.5 331.2,130.5 331.4,130.3 331.6,132.9 331.8,134.5 332.0,143.6 332.2,150.0 332.3,151.4 332.5,156.2 332.7,155.1 332.9,151.1 333.1,149.4 333.3,151.2 333.5,148.9 333.7,146.4 333.8,142.1 334.0,135.4 334.2,135.3 334.4,126.5 334.6,128.7 334.8,131.0 335.0,130.7 335.1,136.6 335.3,131.4 335.5,134.0 335.7,141.2 335.9,140.3 336.1,147.8 336.3,150.5 336.5,151.8 336.6,152.7 336.8,148.0 337.0,146.6 337.2,143.9 337.4,148.3 337.6,138.6 337.8,139.1 337.9,137.6 338.1,134.2 338.3,133.4 338.5,135.1 338.7,132.9 338.9,130.8 339.1,131.3 339.3,131.0 339.4,140.9 339.6,135.7 339.8,139.0 340.0,141.9 340.2,140.7 340.4,150.8 340.6,144.3 340.7,142.7 340.9,150.3 341.1,143.8 341.3,138.2 341.5,143.3 341.7,135.1 341.9,132.7 342.1,136.2 342.2,138.2 342.4,136.8 342.6,130.1 342.8,135.0 343.0,137.2 343.2,137.2 343.4,133.6 343.5,142.7 343.7,147.0 343.9,138.5 344.1,146.5 344.3,146.6 344.5,140.5 344.7,147.7 344.9,149.2 345.0,139.4 345.2,145.0 345.4,143.7 345.6,134.4 345.8,140.6 346.0,132.1 346.2,137.4 346.3,137.3 346.5,138.2 346.7,135.1 346.9,135.7 347.1,138.5 347.3,138.7 347.5,142.3 347.7,137.8 347.8,137.9 348.0,140.8 348.2,140.7 348.4,149.0 348.6,146.8 348.8,146.8 349.0,146.5 349.1,136.6 349.3,136.1 349.5,134.8 349.7,137.5 349.9,141.4 350.1,137.4 350.3,141.0 350.5,131.9 350.6,139.1 350.8,139.5 351.0,133.3 351.2,142.3 351.4,135.6 351.6,143.2 351.8,140.3 351.9,147.0 352.1,138.9 352.3,144.4 352.5,144.8 352.7,141.1 352.9,141.1 353.1,143.9 353.3,144.4 353.4,138.6 353.6,143.7 353.8,133.8 354.0,139.0 354.2,140.7 354.4,139.0 354.6,141.6 354.7,139.9 354.9,138.1 355.1,140.4 355.3,142.0 355.5,143.2 355.7,141.8 355.9,139.1 356.1,143.1 356.2,139.7 356.4,142.6 356.6,146.2 356.8,145.1 357.0,137.2 357.2,140.4 357.4,140.8 357.5,138.7 357.7,134.6 357.9,139.3 358.1,139.3 358.3,139.2 358.5,143.3 358.7,137.9 358.9,139.2 359.0,139.6 359.2,140.7 359.4,141.1 359.6,139.0 359.8,139.3 360.0,136.7 360.2,136.8 360.3,137.9 360.5,145.1 360.7,138.0 360.9,143.3 361.1,144.7 361.3,139.1 361.5,138.6 361.7,134.9 361.8,134.3 362.0,133.1 362.2,143.1 362.4,139.8 362.6,143.0 362.8,136.4 363.0,140.2 363.1,140.7 363.3,137.4 363.5,135.6 363.7,139.4 363.9,137.4 364.1,141.0 364.3,145.9 364.5,145.7 364.6,145.3 364.8,144.9 365.0,136.5 365.2,142.0 365.4,137.5 365.6,144.1 365.8,141.9 365.9,136.3 366.1,136.4 366.3,138.7 366.5,134.4 366.7,142.5 366.9,137.6 367.1,137.5 367.3,139.2 367.4,137.9 367.6,138.9 367.8,139.0 368.0,144.5 368.2,140.7 368.4,135.8 368.6,143.7 368.7,139.4 368.9,144.0 369.1,143.7 369.3,140.0 369.5,139.8 369.7,137.2 369.9,142.9 370.1,136.5 370.2,135.9 370.4,135.4 370.6,141.9 370.8,142.2 371.0,143.7 371.2,136.1 371.4,141.3 371.5,142.0 371.7,140.7 371.9,138.7 372.1,142.8 372.3,142.5 372.5,142.3 372.7,137.3 372.9,142.2 373.0,144.4 373.2,134.9 373.4,136.9 373.6,139.0 373.8,139.0 374.0,135.0 374.2,135.0 374.3,143.1 374.5,144.3 374.7,141.6 374.9,138.9 375.1,141.5 375.3,135.2 375.5,135.2 375.7,140.5 375.8,138.3 376.0,138.9 376.2,138.7 376.4,140.1 376.6,139.8 376.8,140.1 377.0,136.4 377.1,136.4 377.3,136.9 377.5,142.2 377.7,136.2 377.9,144.6 378.1,140.2 378.3,140.6 378.5,140.6 378.6,143.2 378.8,143.2 379.0,144.0 379.2,139.3 379.4,139.2 379.6,145.4 379.8,143.5 379.9,143.2 380.1,143.2 380.3,140.5 380.5,139.3 380.7,142.3 380.9,138.3 381.1,136.6 381.3,138.2 381.4,145.4 381.6,140.7 381.8,140.7 382.0,144.9 382.2,136.9 382.4,142.0 382.6,142.2 382.7,138.6 382.9,139.1 383.1,139.1 383.3,136.1 383.5,136.1 383.7,141.7 383.9,144.7 384.1,139.4 384.2,141.5 384.4,139.6 384.6,141.6 384.8,141.6 385.0,145.0 385.2,143.7 385.4,144.4 385.5,136.2 385.7,139.1 385.9,142.8 386.1,137.7 386.3,138.5 386.5,138.5 386.7,137.3 386.9,142.9 387.0,134.6 387.2,143.9 387.4,142.3 387.6,142.7 387.8,142.7 388.0,136.6 388.2,136.6 388.3,143.8 388.5,140.8 388.7,137.8 388.9,144.8 389.1,135.5 389.3,136.3 389.5,136.3 389.7,137.9 389.8,138.7 390.0,134.9 390.2,142.5 390.4,142.1 390.6,144.1 390.8,143.5 391.0,136.8 391.1,136.8 391.3,137.4 391.5,141.1 391.7,135.9 391.9,137.2 392.1,138.0 392.3,136.3 392.5,136.3 392.6,142.5 392.8,142.5 393.0,140.8 393.2,138.2 393.4,135.9 393.6,137.4 393.8,135.4 393.9,137.9 394.1,137.9 394.3,139.9 394.5,137.3 394.7,136.6 394.9,141.4 395.1,141.6 395.3,138.8 395.4,142.9 395.6,135.9 395.8,135.9 396.0,138.4 396.2,140.2 396.4,143.3 396.6,139.2 396.7,140.3 396.9,135.0 397.1,135.0 397.3,139.1 397.5,139.1 397.7,135.9 397.9,143.6 398.1,136.5 398.2,136.4 398.4,134.7 398.6,137.2 398.8,137.2 399.0,143.2 399.2,138.3 399.4,143.1 399.5,137.2 399.7,139.2 399.9,136.5 400.1,141.5 400.3,142.1 400.5,142.1 400.7,138.2 400.9,141.3 401.0,139.3 401.2,140.7 401.4,138.5 401.6,139.8 401.8,139.8 402.0,134.8 402.2,134.8 402.3,137.2 402.5,142.4 402.7,143.3 402.9,137.5 403.1,136.5 403.3,138.4 403.5,138.4 403.7,137.6 403.8,139.7 404.0,141.4 404.2,139.0 404.4,140.6 404.6,138.4 404.8,137.3 405.0,134.8 405.1,134.8 405.3,139.2 405.5,135.2 405.7,138.3 405.9,139.1 406.1,136.2 406.3,145.1 406.5,145.1 406.6,138.7 406.8,138.7 407.0,142.0 407.2,138.7 407.4,144.0 407.6,139.7 407.8,142.6 407.9,135.3 408.1,135.3 408.3,140.3 408.5,137.2 408.7,141.2 408.9,139.7 409.1,143.7 409.3,136.1 409.4,137.1 409.6,137.2 409.8,137.2 410.0,136.6 410.2,145.3 410.4,139.3 410.6,140.1 410.7,144.8 410.9,140.8 411.1,140.8 411.3,138.7 411.5,138.7 411.7,136.6 411.9,141.6 412.1,135.7 412.2,141.1 412.4,144.6 412.6,134.9 412.8,134.9 413.0,142.7 413.2,137.1 413.4,144.2 413.5,139.5 413.7,136.1 413.9,139.0 414.1,141.6 414.3,137.2 414.5,137.2 414.7,139.1 414.9,138.6 415.0,141.9 415.2,141.0 415.4,134.7 415.6,134.9 415.8,134.9 416.0,143.3 416.2,143.3 416.3,136.8 416.5,143.2 416.7,143.6 416.9,137.1 417.1,143.6 417.3,134.8 417.5,134.8 417.7,135.7 417.8,136.5 418.0,143.2 418.2,136.9 418.4,140.9 418.6,143.0 418.8,144.9 419.0,137.8 419.1,137.8 419.3,142.1 419.5,136.4 419.7,143.3 419.9,140.6 420.1,144.5 420.3,141.6 420.5,141.6 420.6,140.0 420.8,140.0 421.0,142.8 421.2,138.4 421.4,142.4 421.6,135.8 421.8,144.7 421.9,136.0 422.1,136.0 422.3,136.5 422.5,141.6 422.7,144.7 422.9,143.5 423.1,138.6 423.3,145.1 423.4,144.2 423.6,137.0 423.8,137.0 424.0,136.2 424.2,136.4 424.4,139.4 424.6,135.9 424.7,137.9 424.9,139.4 425.1,139.4 425.3,145.1 425.5,145.1 425.7,142.7 425.9,140.4 426.1,144.1 426.2,134.9 426.4,139.2 426.6,137.4 426.8,137.4 427.0,143.0 427.2,135.8 427.4,135.1 427.5,142.5 427.7,144.0 427.9,136.8 428.1,135.8 428.3,136.8 428.5,136.8 428.7,138.9 428.9,144.2 429.0,142.9 429.2,140.9 429.4,137.4 429.6,144.4 429.8,144.4 430.0,145.1 430.2,145.1 430.3,142.8 430.5,136.6 430.7,136.6 430.9,135.1 431.1,140.3 431.3,137.9 431.5,137.9 431.7,136.4 431.8,144.2 432.0,135.9 432.2,139.0 432.4,144.7 432.6,135.2 432.8,142.0 433.0,144.7 433.1,144.7 433.3,145.1 433.5,142.4 433.7,137.7 433.9,134.7 434.1,138.6 434.3,136.2 434.5,136.2 434.6,137.7 434.8,137.7 435.0,142.7 435.2,143.7 435.4,139.5 435.6,143.2 435.8,137.4 435.9,141.9 436.1,141.9 436.3,139.5 436.5,138.6 436.7,143.7 436.9,142.6 437.1,138.0 437.3,143.1 437.4,138.1 437.6,135.0 437.8,135.0 438.0,135.0 438.2,138.8 438.4,135.2 438.6,139.7 438.7,137.3 438.9,138.0 439.1,138.0 439.3,139.8 439.5,139.8 439.7,140.4 439.9,138.3 440.1,135.6 440.2,136.8 440.4,136.6 440.6,143.9 440.8,143.9 441.0,138.6 441.2,135.3 441.4,145.4 441.5,143.5 441.7,134.9 441.9,141.4 442.1,137.8 442.3,139.0 442.5,141.1 442.7,140.7 442.9,139.3 443.0,134.8 443.2,139.6 443.4,136.9 443.6,142.1 443.8,137.7 444.0,138.9 444.2,137.4 444.3,135.9 444.5,144.5 444.7,135.0 444.9,138.8 445.1,142.6 445.3,140.4 445.5,144.4 445.7,142.9 445.8,136.4 446.0,137.7 446.2,136.0 446.4,143.6 446.6,144.2 446.8,141.3 447.0,140.0 447.1,137.7 447.3,142.2 447.5,137.4 447.7,139.1 447.9,142.3 448.1,136.9 448.3,144.6 448.5,139.0 448.6,143.4 448.8,144.9 449.0,140.2 449.2,139.8 449.4,138.8 449.6,141.3 449.8,135.4 449.9,136.9 450.1,143.7 450.3,145.3 450.5,135.0 450.7,141.0 450.9,144.3 451.1,143.5 451.3,137.8 451.4,143.5 451.6,141.4 451.8,138.1 452.0,141.6 452.2,138.3 452.4,135.2 452.6,136.8 452.7,138.6 452.9,138.6 453.1,142.1 453.3,138.5 453.5,138.4 453.7,139.1 453.9,140.1 454.1,137.3 454.2,143.2 454.4,137.7 454.6,134.8 454.8,145.0 455.0,142.7 455.2,134.8 455.4,144.5 455.5,136.6 455.7,139.1 455.9,144.6 456.1,138.6 456.3,145.3 456.5,136.2 456.7,142.1 456.9,135.4 457.0,135.7 457.2,143.9 457.4,141.0 457.6,143.8 457.8,137.2 458.0,144.4 458.2,144.6 458.3,144.1 458.5,136.1 458.7,142.7 458.9,141.9 459.1,140.6 459.3,139.4 459.5,140.9 459.7,135.2 459.8,141.7 460.0,140.3 460.2,136.1 460.4,142.8 460.6,143.5 460.8,136.4 461.0,142.0 461.1,135.8 461.3,136.5 461.5,141.4 461.7,141.8 461.9,144.3 462.1,136.0 462.3,140.6 462.5,141.7 462.6,143.5 462.8,143.0 463.0,136.0 463.2,144.0 463.4,139.4 463.6,138.7 463.8,139.8 463.9,140.0 464.1,141.1 464.3,143.3 464.5,136.5 464.7,135.7 464.9,139.3 465.1,142.7 465.3,135.5 465.4,143.2 465.6,143.6 465.8,138.6 466.0,136.4 466.2,139.2 466.4,144.2 466.6,134.8 466.7,143.7 466.9,141.7 467.1,134.7 467.3,136.8 467.5,137.2 467.7,144.6 467.9,136.2 468.1,141.1 468.2,145.3 468.4,136.9 468.6,135.4 468.8,144.9 469.0,140.5 469.2,135.7 469.4,141.8 469.5,142.1 469.7,137.0 469.9,140.6 470.1,134.6 470.3,136.2 470.5,136.1 470.7,137.8 470.9,143.3 471.0,138.0 471.2,139.2 471.4,140.2 471.6,139.3 471.8,142.1 472.0,143.3 472.2,135.5 472.3,141.4 472.5,144.3 472.7,134.9 472.9,139.9 473.1,138.1 473.3,141.7 473.5,143.8 473.7,141.8 473.8,136.4 474.0,142.4 474.2,135.5 474.4,142.1 474.6,135.7 474.8,143.5 475.0,140.6 475.1,144.0 475.3,143.8 475.5,139.8 475.7,141.5 475.9,139.6 476.1,143.1 476.3,142.0 476.5,141.9 476.6,135.7 476.8,144.5 477.0,140.9 477.2,136.2 477.4,139.2 477.6,142.6 477.8,134.6 477.9,144.2 478.1,143.9 478.3,145.2 478.5,140.7 478.7,136.1 478.9,142.4 479.1,142.3 479.3,136.8 479.4,144.6 479.6,145.2 479.8,138.2 480.0,144.4 480.2,139.7 480.4,143.8 480.6,138.9 480.7,136.2 480.9,140.5 481.1,142.4 481.3,138.7 481.5,137.8 481.7,144.8 481.9,142.8 482.1,141.3 482.2,139.9 482.4,142.4 482.6,138.3 482.8,142.6 483.0,135.6 483.2,141.6 483.4,143.0 483.5,144.6 483.7,144.0 483.9,143.1 484.1,135.9 484.3,140.9 484.5,140.6 484.7,135.0 484.9,135.0 485.0,137.1 485.2,142.8 485.4,141.9 485.6,139.9 485.8,142.6 486.0,141.7 486.2,143.1 486.3,142.8 486.5,137.3 486.7,138.9 486.9,140.6 487.1,140.3 487.3,138.8 487.5,138.0 487.7,145.2 487.8,136.3 488.0,140.4 488.2,141.7 488.4,135.0 488.6,137.2 488.8,141.6 489.0,145.1 489.1,140.7 489.3,140.7 489.5,141.4 489.7,144.3 489.9,139.2 490.1,142.6 490.3,137.2 490.5,139.7 490.6,142.2 490.8,136.5 491.0,140.6 491.2,144.5 491.4,142.4 491.6,144.8 491.8,140.8 491.9,135.6 492.1,135.2 492.3,138.4 492.5,143.7 492.7,142.8 492.9,143.2 493.1,141.4 493.3,135.2 493.4,139.0 493.6,131.6 493.8,130.8 494.0,127.7 494.2,126.3 494.4,132.2 494.6,132.0 494.7,138.2 494.9,139.1 495.1,140.1 495.3,149.1 495.5,146.4 495.7,148.2 495.9,152.5 496.1,151.9 496.2,144.9 496.4,148.6 496.6,148.2 496.8,144.8 497.0,139.6 497.2,138.4 497.4,136.7 497.5,135.3 497.7,135.3 497.9,131.8 498.1,131.1 498.3,137.7 498.5,133.8 498.7,138.9 498.9,133.9 499.0,136.6 499.2,147.4 499.4,143.0 499.6,148.1 499.8,151.2 500.0,143.0 500.2,142.0 500.3,142.2 500.5,142.2 500.7,136.6 500.9,139.2 501.1,135.9 501.3,134.5 501.5,131.0 501.7,130.2 501.8,135.9 502.0,137.2 502.2,134.3 502.4,135.1 502.6,139.2 502.8,135.5 503.0,137.3 503.1,140.7 503.3,143.6 503.5,142.8 503.7,148.7 503.9,142.1 504.1,148.9 504.3,139.6 504.5,141.4 504.6,143.7 504.8,143.1 505.0,137.2 505.2,137.4 505.4,133.9 505.6,139.7 505.8,131.1 505.9,136.2 506.1,136.7 506.3,134.5 506.5,137.1 506.7,140.2 506.9,143.2 507.1,142.5 507.3,148.2 507.4,146.5 507.6,140.7 507.8,148.3 508.0,148.2 508.2,139.3 508.4,143.4 508.6,140.6 508.7,138.8 508.9,136.3 509.1,139.6 509.3,134.0 509.5,141.8 509.7,132.5 509.9,138.6 510.1,135.7 510.2,139.9 510.4,136.0 510.6,141.1 510.8,139.7 511.0,143.6 511.2,138.9 511.4,140.0 511.5,146.5 511.7,140.4 511.9,138.1 512.1,145.1 512.3,144.9 512.5,136.0 512.7,134.7 512.9,142.9 513.0,135.2 513.2,132.9 513.4,139.8 513.6,134.1 513.8,139.5 514.0,134.6 514.2,138.2 514.3,139.4 514.5,143.9 514.7,139.0 514.9,139.2 515.1,144.2 515.3,147.2 515.5,146.9 515.7,145.0 515.8,136.8 516.0,139.1 516.2,136.9 516.4,137.8 516.6,143.7 516.8,140.3 517.0,133.7 517.1,134.3 517.3,132.6 517.5,134.4 517.7,135.7 517.9,135.4 518.1,134.3 518.3,140.1 518.5,145.0 518.6,142.5 518.8,146.3 519.0,144.0 519.2,140.8 519.4,144.3 519.6,144.6 519.8,146.0 519.9,142.8 520.1,140.7 520.3,139.3 520.5,135.0 520.7,143.9 520.9,141.5 521.1,143.1 521.3,133.7 521.4,136.9 521.6,136.7 521.8,135.3 522.0,144.4 522.2,135.1 522.4,141.8 522.6,139.0 522.7,141.9 522.9,138.5 523.1,143.5 523.3,143.9 523.5,144.1 523.7,138.8 523.9,141.5 524.1,144.4 524.2,141.8 524.4,139.1 524.6,140.8 524.8,138.1 525.0,135.2 525.2,137.2 525.4,135.5 525.5,140.9 525.7,135.0 525.9,134.5 526.1,139.3 526.3,145.1 526.5,144.8 526.7,137.9 526.9,136.9 527.0,138.7 527.2,141.1 527.4,140.7 527.6,145.1 527.8,139.7 528.0,135.1 528.2,143.3 528.3,138.6 528.5,135.8 528.7,137.7 528.9,140.7 529.1,141.8 529.3,136.5 529.5,134.5 529.7,135.2 529.8,140.5 530.0,137.1 530.2,136.6 530.4,141.6 530.6,137.8 530.8,141.9 531.0,144.1 531.1,146.3 531.3,138.4 531.5,138.0 531.7,145.5 531.9,145.1 532.1,142.1 532.3,143.0 532.5,137.1 532.6,142.8 532.8,138.4 533.0,138.7 533.2,140.9 533.4,135.5 533.6,140.1 533.8,139.5 533.9,138.0 534.1,141.1 534.3,143.6 534.5,135.5 534.7,137.8 534.9,140.2 535.1,140.7 535.3,139.4 535.4,142.8 535.6,145.0 535.8,139.8 536.0,135.8 536.2,144.2 536.4,134.5 536.6,140.9 536.7,134.1 536.9,136.5 537.1,141.9 537.3,142.6 537.5,135.4 537.7,134.5 537.9,136.6 538.1,139.1 538.2,139.7 538.4,137.3 538.6,136.9 538.8,136.9 539.0,142.8 539.2,137.0 539.4,135.5 539.5,139.5 539.7,145.5 539.9,143.4 540.1,138.3 540.3,140.6 540.5,135.2 540.7,138.1 540.9,137.4 541.0,143.3 541.2,139.3 541.4,137.4 541.6,135.3 541.8,135.6 542.0,142.6 542.2,140.1 542.3,135.1 542.5,144.8 542.7,145.0 542.9,143.8 543.1,137.9 543.3,142.2 543.5,138.0 543.7,136.6 543.8,136.7 544.0,144.9 544.2,137.8 544.4,136.5 544.6,137.5 544.8,135.7 545.0,136.2 545.1,138.5 545.3,135.8 545.5,139.4 545.7,144.2 545.9,142.3 546.1,135.4 546.3,142.0 546.5,140.6 546.6,136.3 546.8,138.3 547.0,137.1 547.2,140.6 547.4,140.1 547.6,144.7 547.8,143.3 547.9,143.6 548.1,139.5 548.3,139.5 548.5,144.4 548.7,138.3 548.9,144.0 549.1,141.0 549.3,144.9 549.4,140.1 549.6,143.8 549.8,135.3 550.0,141.6 550.2,136.6 550.4,140.8 550.6,142.1 550.7,136.6 550.9,142.7 551.1,140.0 551.3,138.6 551.5,134.7 551.7,137.8 551.9,144.8 552.1,140.4 552.2,135.0 552.4,136.0 552.6,141.2 552.8,143.8 553.0,142.3 553.2,137.1 553.4,143.4 553.5,135.7 553.7,142.6 553.9,138.0 554.1,138.0 554.3,142.9 554.5,140.0 554.7,138.8 554.9,142.7 555.0,139.8 555.2,138.7 555.4,135.1 555.6,142.3 555.8,143.5 556.0,139.8 556.2,138.8 556.3,140.0 556.5,135.4 556.7,143.1 556.9,139.8 557.1,140.2 557.3,143.2 557.5,140.5 557.7,140.5 557.8,141.4 558.0,137.1 558.2,134.9 558.4,135.1 558.6,143.2 558.8,141.5 559.0,135.3 559.1,144.6 559.3,144.5 559.5,144.7 559.7,135.0 559.9,139.9 560.1,140.6 560.3,144.3 560.5,135.9 560.6,134.7 560.8,138.0 561.0,135.5 561.2,139.3 561.4,142.0 561.6,143.5 561.8,142.1 561.9,143.8 562.1,141.4 562.3,144.9 562.5,145.0 562.7,135.7 562.9,136.2 563.1,136.6 563.3,141.6 563.4,140.5 563.6,139.5 563.8,136.9 564.0,142.1 564.2,139.9 564.4,139.5 564.6,136.3 564.7,141.6 564.9,145.4 565.1,141.0 565.3,135.9 565.5,143.5 565.7,138.6 565.9,144.0 566.1,142.5 566.2,138.7 566.4,144.3 566.6,140.5 566.8,139.1 567.0,141.2 567.2,137.2 567.4,136.3 567.5,142.4 567.7,137.2 567.9,137.2 568.1,139.0 568.3,139.0 568.5,139.3 568.7,137.4 568.9,137.9 569.0,142.5 569.2,138.4 569.4,137.7 569.6,140.4 569.8,135.7 570.0,142.0 570.2,139.4 570.3,139.3 570.5,138.9 570.7,143.4 570.9,138.2 571.1,144.1 571.3,139.6 571.5,140.5 571.7,137.9 571.8,136.1 572.0,134.8 572.2,142.9 572.4,135.6 572.6,140.3 572.8,140.0 573.0,145.0 573.1,136.1 573.3,142.9 573.5,142.4 573.7,142.1 573.9,142.9 574.1,142.3 574.3,142.3 574.5,139.6 574.6,141.5 574.8,137.2 575.0,135.3 575.2,135.3 575.4,141.3 575.6,138.0 575.8,137.5 575.9,137.6 576.1,141.1 576.3,143.3 576.5,137.2 576.7,138.3 576.9,141.6 577.1,138.2 577.3,144.7 577.4,136.9 577.6,135.7 577.8,134.9 578.0,144.2 578.2,137.9 578.4,137.0 578.6,143.9 578.7,138.8 578.9,143.4 579.1,143.0 579.3,145.1 579.5,142.4 579.7,136.2 579.9,139.1 580.1,136.8 580.2,134.9 580.4,143.8 580.6,136.2 580.8,135.7 581.0,138.4 581.2,141.8 581.4,143.5 581.5,140.7 581.7,141.4 581.9,142.6 582.1,138.1 582.3,138.5 582.5,142.6 582.7,143.5 582.9,140.0 583.0,137.7 583.2,138.2 583.4,138.5 583.6,135.7 583.8,137.2 584.0,140.6 584.2,137.3 584.3,138.2 584.5,141.7 584.7,143.6 584.9,141.3 585.1,137.6 585.3,137.3 585.5,142.1 585.7,139.6 585.8,144.6 586.0,138.9 586.2,140.6 586.4,137.1 586.6,136.1 586.8,144.8 587.0,135.0 587.1,143.5 587.3,135.0 587.5,134.8 587.7,143.0 587.9,142.3 588.1,143.8 588.3,135.6 588.5,137.2 588.6,135.0 588.8,136.7 589.0,141.5 589.2,137.0 589.4,141.6 589.6,141.8 589.8,140.8 589.9,137.8 590.1,142.0 590.3,139.4 590.5,139.3 590.7,136.8 590.9,140.3 591.1,140.9 591.3,139.4 591.4,140.4 591.6,137.5 591.8,144.2 592.0,143.5 592.2,145.0 592.4,140.9 592.6,136.2 592.7,138.9 592.9,138.5 593.1,135.3 593.3,136.5 593.5,142.2 593.7,143.0 593.9,139.6 594.1,142.9 594.2,139.0 594.4,144.5 594.6,141.2 594.8,137.6 595.0,142.6 595.2,143.8 595.4,137.3 595.5,143.3 595.7,135.7 595.9,138.8 596.1,135.8 596.3,139.7 596.5,140.1 596.7,142.6 596.9,144.8 597.0,135.1 597.2,143.0 597.4,144.5 597.6,135.3 597.8,139.6 598.0,139.1 598.2,135.5 598.3,137.5 598.5,142.6 598.7,142.3 598.9,138.3 599.1,138.1 599.3,143.0 599.5,142.7 599.7,139.9 599.8,144.8 600.0,136.7 600.2,138.3 600.4,143.8 600.6,139.1 600.8,139.0 601.0,144.4 601.1,140.8 601.3,136.8 601.5,140.5 601.7,137.5 601.9,142.9 602.1,134.6 602.3,138.2 602.5,139.4 602.6,145.3 602.8,141.6 603.0,145.4 603.2,140.7 603.4,143.5 603.6,142.8 603.8,142.1 603.9,143.8 604.1,142.3 604.3,140.0 604.5,143.9 604.7,139.3 604.9,135.1 605.1,137.6 605.3,135.1 605.4,144.2 605.6,138.3 605.8,142.8 606.0,135.3 606.2,140.0 606.4,137.6 606.6,137.0 606.7,144.0 606.9,144.3 607.1,136.6 607.3,136.6 607.5,140.7 607.7,145.1 607.9,145.1 608.1,136.7 608.2,137.9 608.4,141.4 608.6,138.1 608.8,136.7 609.0,145.3 609.2,137.3 609.4,134.8 609.5,136.0 609.7,135.9 609.9,140.6 610.1,138.8 610.3,144.2 610.5,136.8 610.7,138.3 610.9,141.0 611.0,144.9 611.2,143.5 611.4,141.1 611.6,135.5 611.8,140.3 612.0,136.0 612.2,143.4 612.3,142.7 612.5,142.8 612.7,142.3 612.9,136.8 613.1,141.4 613.3,141.9 613.5,138.0 613.7,140.6 613.8,135.9 614.0,137.9 614.2,136.4 614.4,140.8 614.6,141.1 614.8,140.5 615.0,134.7 615.1,135.2 615.3,139.3 615.5,140.1 615.7,144.6 615.9,136.1 616.1,138.8 616.3,141.0 616.5,143.6 616.6,140.3 616.8,137.7 617.0,142.5 617.2,142.5 617.4,139.9 617.6,140.0 617.8,145.3 617.9,144.7 618.1,141.4 618.3,137.7 618.5,141.3 618.7,145.2 618.9,142.8 619.1,143.3 619.3,137.1 619.4,142.9 619.6,134.8 619.8,142.3 620.0,143.5" fill="none" stroke="#1f5fa8" stroke-width="1.4" stroke-linejoin="round" stroke-linecap="round"/>
<circle cx="119.7" cy="255.0" r="11" fill="#fff" stroke="#1a2332" stroke-width="2"/>
<text x="119.7" y="259.5" font-size="13" text-anchor="middle" font-weight="700" fill="#1a2332">1</text>
<circle cx="306.4" cy="255.0" r="11" fill="#fff" stroke="#1a2332" stroke-width="2"/>
<text x="306.4" y="259.5" font-size="13" text-anchor="middle" font-weight="700" fill="#1a2332">2</text>
<circle cx="493.1" cy="255.0" r="11" fill="#fff" stroke="#1a2332" stroke-width="2"/>
<text x="493.1" y="259.5" font-size="13" text-anchor="middle" font-weight="700" fill="#1a2332">3</text>
</svg>
